<svg version="1.1" id="Layer_1" xmlns="http://www.w3.org/2000/svg" xmlns:xlink="http://www.w3.org/1999/xlink" x="0px" y="0px"
	 width="100%" viewBox="0 0 860 872" enable-background="new 0 0 860 872" xml:space="preserve">
<path fill="#000000" opacity="1.000000" stroke="none" 
	d="
M861.000000,334.000000 
	C861.000000,513.999939 861.000000,693.499817 861.000000,872.999817 
	C574.333557,872.999878 287.667053,872.999878 1.000438,872.999939 
	C1.000292,582.333679 1.000292,291.667297 1.000146,1.000711 
	C287.666229,1.000474 574.332458,1.000474 860.999390,1.000237 
	C861.000000,111.833336 861.000000,222.666672 861.000000,334.000000 
M261.973816,91.972664 
	C261.973816,91.972664 261.973175,91.853256 261.440643,92.042244 
	C261.242950,92.352592 261.045258,92.662941 260.976471,92.977119 
	C260.976471,92.977119 260.970917,92.848282 260.441284,93.041313 
	C260.240540,93.349442 260.039795,93.657562 259.954010,93.960327 
	C259.954010,93.960327 259.931458,93.847496 259.281433,93.980743 
	C258.473633,94.626923 257.665863,95.273102 256.942017,95.931412 
	C256.942017,95.931412 256.926514,95.848000 256.233490,95.982162 
	C255.771545,96.631058 255.309586,97.279953 254.940582,97.940903 
	C254.940582,97.940903 254.928665,97.847946 254.233566,97.981888 
	C253.772903,98.633896 253.312241,99.285904 252.982849,99.958725 
	C252.982849,99.958725 252.991440,99.826088 252.285919,99.976784 
	C251.477142,100.290627 250.668365,100.604469 249.949615,100.922119 
	C249.949615,100.922119 249.905441,100.843575 249.279892,101.134018 
	C247.486343,103.076408 245.692810,105.018799 243.974411,106.973984 
	C243.974411,106.973984 243.962357,106.898727 243.248016,107.000145 
	C242.796082,107.653389 242.344131,108.306633 241.969070,108.968384 
	C241.969070,108.968384 241.959518,108.891632 241.251709,108.997307 
	C240.779800,109.638268 240.307892,110.279236 239.933151,110.933716 
	C239.933151,110.933716 239.919724,110.836563 239.219925,110.959969 
	C238.759247,111.614418 238.298553,112.268860 237.933624,112.947510 
	C237.933624,112.947510 237.934509,112.848763 237.268784,112.976944 
	C236.130142,113.957397 234.991501,114.937859 233.939804,115.929947 
	C233.939804,115.929947 233.925140,115.843445 233.231628,115.978157 
	C232.768723,116.627426 232.305801,117.276688 231.936295,117.938354 
	C231.936295,117.938354 231.923355,117.845009 231.222443,117.977943 
	C226.430756,122.961998 221.639069,127.946053 216.941437,132.941895 
	C216.941437,132.941895 216.929642,132.847839 216.234451,132.977158 
	C214.105347,135.294815 211.976242,137.612488 209.941650,139.941956 
	C209.941650,139.941956 209.929932,139.847443 209.228149,139.977539 
	C206.423660,142.950928 201.521774,143.968994 200.953125,148.959915 
	C200.953125,148.959915 200.949265,148.872650 200.246689,148.979492 
	C199.779007,149.629135 199.311325,150.278763 198.940094,150.940536 
	C198.940094,150.940536 198.928040,150.844086 198.232956,150.977417 
	C197.769791,151.627884 197.306641,152.278351 196.939011,152.940765 
	C196.939011,152.940765 196.926605,152.845291 196.231354,152.977386 
	C195.435684,153.959686 194.640015,154.941971 193.937927,155.937119 
	C193.937927,155.937119 193.925491,155.843475 193.232040,155.978409 
	C192.768967,156.627548 192.305893,157.276688 191.938248,157.938400 
	C191.938248,157.938400 191.925858,157.842941 191.219833,157.978043 
	C190.732468,158.643967 190.245117,159.309906 189.205338,160.161301 
	C188.463455,161.031021 187.721573,161.900742 186.366882,163.085083 
	C185.866989,164.052795 185.367081,165.020508 184.408722,166.062317 
	C184.107147,166.234528 183.964828,166.494064 183.446060,167.036179 
	C183.346451,167.362640 183.246841,167.689117 182.995834,168.425644 
	C182.995834,168.425644 182.970718,168.862061 182.209473,168.975128 
	C179.528152,173.670410 176.846848,178.365707 173.990204,183.429291 
	C173.990204,183.429291 173.992035,183.837219 173.262711,184.005600 
	C171.128265,187.317459 168.993805,190.629303 166.939896,193.956650 
	C166.939896,193.956650 166.934784,193.874786 166.275345,194.154907 
	C165.806549,195.430161 165.337753,196.705399 164.142593,197.988571 
	C161.420898,202.287003 158.699203,206.585434 155.269775,211.007080 
	C154.803024,211.654999 154.336273,212.302917 153.951813,212.963745 
	C153.951813,212.963745 153.947876,212.880539 153.195694,212.983307 
	C151.843384,215.341919 150.491058,217.700546 148.983704,220.418304 
	C148.983704,220.418304 148.982574,220.809479 148.361206,221.091736 
	C147.849121,222.048538 147.337036,223.005325 146.943161,223.966660 
	C146.943161,223.966660 146.929321,223.849182 146.185745,223.981644 
	C145.732346,224.975159 145.278931,225.968689 144.944321,226.967331 
	C144.944321,226.967331 144.931442,226.849121 144.210617,226.979004 
	C143.421158,228.295410 142.631714,229.611816 141.935699,230.939880 
	C141.935699,230.939880 141.922165,230.846680 141.182465,230.981140 
	C140.742157,231.969894 140.301834,232.958664 139.944931,233.961243 
	C139.944931,233.961243 139.939972,233.876846 139.295883,234.145355 
	C138.156189,236.082596 137.016479,238.019852 135.953171,239.974213 
	C135.953171,239.974213 135.951813,239.895950 135.290634,240.151840 
	C133.900681,242.783890 132.510742,245.415939 130.962021,248.415665 
	C130.962021,248.415665 130.969238,248.816071 130.232086,248.976364 
	C129.001312,250.686356 127.770554,252.396332 126.237732,254.263580 
	C126.237732,254.263580 126.091805,254.571259 125.572571,254.948593 
	C124.995636,256.275818 124.418694,257.603027 123.933914,258.943817 
	C123.933914,258.943817 123.922783,258.851318 123.353806,259.095215 
	C122.952812,259.750580 122.551826,260.405914 121.999146,261.428711 
	C121.999146,261.428711 121.992165,261.826172 121.328590,262.119354 
	C120.159927,264.399170 118.991264,266.678955 117.935242,268.966461 
	C117.935242,268.966461 117.922997,268.854248 117.283623,269.153076 
	C116.463707,270.755432 115.643799,272.357819 114.940536,273.965179 
	C114.940536,273.965179 114.926323,273.849304 114.239082,273.977051 
	C113.666016,275.023254 113.092957,276.069458 112.229568,277.277008 
	C112.229568,277.277008 112.088814,277.577820 111.568779,277.953644 
	C110.757416,279.655853 109.946053,281.358093 108.979225,283.417358 
	C108.979225,283.417358 108.986389,283.806702 108.325035,284.120483 
	C106.170441,288.061737 104.015854,292.002960 101.946739,295.956909 
	C101.946739,295.956909 101.940102,295.870758 101.196548,295.982178 
	C99.852165,298.673187 98.507782,301.364197 96.989708,304.416046 
	C96.989708,304.416046 96.988022,304.816498 96.203354,304.980347 
	C95.758003,306.315765 95.312653,307.651154 94.109550,308.997864 
	C91.396461,314.947388 88.683380,320.896912 85.190994,326.990540 
	C84.735893,328.317749 84.280792,329.644989 83.943565,330.976532 
	C83.943565,330.976532 83.931519,330.859192 83.260559,331.183929 
	C81.893341,335.121582 80.526123,339.059265 78.995262,343.479248 
	C78.942795,343.640747 78.890335,343.802216 78.948845,343.965576 
	C78.948845,343.965576 78.933289,343.855652 78.132767,343.987671 
	C77.693977,345.652710 77.255188,347.317719 76.942787,348.981598 
	C76.942787,348.981598 76.925880,348.856323 76.241417,349.191925 
	C74.774689,354.128326 73.307968,359.064697 71.959106,363.996216 
	C71.959106,363.996216 71.944649,363.879150 71.229332,364.206451 
	C70.875160,366.469269 70.520996,368.732117 69.988747,371.779968 
	C69.318542,374.140350 68.648338,376.500763 67.255478,379.188416 
	C66.880074,381.462677 66.504662,383.736969 65.969246,386.400909 
	C65.969246,386.400909 65.971436,386.822113 65.259041,387.181763 
	C64.466881,391.786316 63.674725,396.390900 62.162502,401.318115 
	C61.767639,404.494202 61.372776,407.670319 60.113388,410.992279 
	C59.819023,411.107330 59.291172,411.182465 59.263733,411.343109 
	C57.811584,419.845062 55.869724,428.308105 55.126411,436.874756 
	C54.260201,446.857880 54.445984,456.932251 53.998680,467.576538 
	C53.989574,467.999451 53.980469,468.422394 53.218033,469.207855 
	C52.820660,470.550232 52.080421,471.891663 52.076645,473.235168 
	C52.004234,499.008453 51.985523,524.782166 52.097279,550.555176 
	C52.103867,552.074158 53.305347,553.587830 53.995861,556.026917 
	C54.375759,565.023193 54.755657,574.019470 55.003067,583.943359 
	C55.668137,593.489807 56.285736,603.040161 57.075813,612.576294 
	C57.150219,613.474304 58.310223,614.282471 58.979248,616.045410 
	C58.699432,625.309814 60.113224,634.310730 63.042343,643.887390 
	C63.354481,649.270935 63.595860,654.660583 64.059540,660.031067 
	C64.124695,660.785706 65.277740,661.446472 65.948059,662.017761 
	C65.948059,662.017761 65.813644,662.011658 65.970146,662.899414 
	C67.012474,665.554749 63.790520,669.238342 67.988487,672.010132 
	C68.716141,675.672791 69.443787,679.335449 70.035759,683.859741 
	C71.008972,688.273193 71.982185,692.686646 72.974663,696.997314 
	C72.974663,696.997314 72.871048,696.983398 73.038300,697.851624 
	C74.430061,704.754822 75.801613,711.662292 77.279968,718.546875 
	C77.346146,718.854980 78.382225,718.954773 78.983490,719.598816 
	C78.983490,719.598816 79.150650,720.013855 79.024734,720.803223 
	C79.327034,722.247681 79.629326,723.692078 79.948196,725.015625 
	C79.948196,725.015625 79.826164,725.013123 79.972771,725.853882 
	C81.420403,732.521118 82.688385,739.235046 84.405617,745.832092 
	C85.075928,748.407227 86.756645,750.719238 87.989815,753.975037 
	C88.306801,755.543274 88.494141,757.151489 88.963348,758.672791 
	C90.923912,765.029541 92.971062,771.359558 94.982712,777.700562 
	C96.705513,783.131104 98.423218,788.563293 99.990273,794.703918 
	C100.635658,795.850159 101.281044,796.996460 101.941933,798.019348 
	C101.941933,798.019348 101.817604,798.020020 101.971191,798.882385 
	C101.957420,803.398438 102.538132,807.721802 105.957161,811.011963 
	C105.957161,811.011963 105.837753,811.007568 105.999092,811.762085 
	C106.656799,813.245056 107.314507,814.728027 108.120689,816.747559 
	C108.462952,817.166565 108.805214,817.585632 109.099655,818.626221 
	C109.754860,819.037964 110.410065,819.449646 111.429352,820.010742 
	C111.429352,820.010742 111.822838,820.016235 112.025375,820.552002 
	C112.337997,820.756348 112.650627,820.960632 112.960793,821.058655 
	C112.960793,821.058655 112.856857,821.081116 113.176064,821.728088 
	C120.113113,825.417908 127.050156,829.107788 134.877121,832.983826 
	C142.346725,832.305115 149.827621,831.727844 157.280624,830.899658 
	C160.428711,830.549805 163.632294,830.000916 166.611313,828.967712 
	C173.648483,826.527100 180.572144,823.757507 187.530670,821.092041 
	C197.832260,817.146179 208.130524,813.191467 218.417480,809.207642 
	C222.951492,807.451721 227.454193,805.615051 232.728088,803.965149 
	C234.191177,803.331055 235.654282,802.696960 237.015701,802.059326 
	C237.015701,802.059326 237.026855,802.160461 237.851593,802.001709 
	C243.746307,800.010315 249.677338,798.116821 255.508850,795.954956 
	C256.874420,795.448669 257.902985,794.033264 259.010498,793.025940 
	C259.010498,793.025940 259.007874,793.102661 259.763977,792.987732 
	C261.220947,792.351074 262.677948,791.714417 264.029327,791.067688 
	C264.029327,791.067688 264.038940,791.173340 264.665283,791.018250 
	C265.151947,790.690063 265.638611,790.361938 266.907593,790.003235 
	C272.915863,787.273743 278.924164,784.544312 285.396729,781.962524 
	C285.744537,782.000488 286.041870,781.895447 286.423798,781.600220 
	C286.423798,781.600220 286.558777,781.552551 287.161591,781.198975 
	C288.486633,780.492371 289.811707,779.785706 291.037231,779.073059 
	C291.037231,779.073059 291.053009,779.171509 291.832855,779.016724 
	C294.601379,777.705139 297.369934,776.393616 300.039429,775.074463 
	C300.039429,775.074463 300.054596,775.172607 300.861206,775.022278 
	C303.293427,773.692993 305.725616,772.363647 308.794952,770.734436 
	C311.546387,769.430725 314.297791,768.127014 317.566711,766.894714 
	C317.739929,766.604858 317.913147,766.315002 318.013428,766.019897 
	C318.013428,766.019897 318.021881,766.092590 318.733154,765.954895 
	C319.864136,765.326904 320.995148,764.698853 322.029755,764.067200 
	C322.029755,764.067200 322.045166,764.162415 322.749054,763.999573 
	C323.879517,763.360474 325.009949,762.721313 326.040222,762.074768 
	C326.040222,762.074768 326.055786,762.174011 326.842743,762.020752 
	C328.585785,761.022766 330.328827,760.024780 332.004364,759.012512 
	C332.004364,759.012512 332.010559,759.081238 332.702209,758.956909 
	C333.833801,758.313049 334.965363,757.669128 336.755219,756.769470 
	C345.434296,751.838684 354.064270,746.818604 362.809784,742.008545 
	C368.605011,738.821228 374.732330,736.212952 380.396973,732.821045 
	C384.531921,730.345154 388.155121,727.014587 392.725861,723.990906 
	C393.533020,723.691833 394.340210,723.392761 395.054504,723.073975 
	C395.054504,723.073975 395.060883,723.168701 395.604675,722.982178 
	C395.786591,722.658752 395.968506,722.335388 396.543854,721.956787 
	C396.543854,721.956787 396.925323,721.845703 397.673676,721.892944 
	C401.831665,719.602844 406.150787,717.555786 410.094177,714.941895 
	C412.998199,713.017029 415.411255,710.351379 418.000671,707.995911 
	C418.000671,707.995911 418.011902,708.041443 418.743713,708.010193 
	C419.188721,707.355225 419.633698,706.700256 420.733307,705.796692 
	C423.481781,704.134583 426.230225,702.472473 429.523315,700.898376 
	C429.854919,700.464783 430.186523,700.031128 430.447998,699.465637 
	C430.447998,699.465637 430.581635,699.532227 431.182190,699.163208 
	C433.158508,697.795410 435.134796,696.427612 437.028442,695.050659 
	C437.028442,695.050659 437.061981,695.126770 437.781830,695.016235 
	C439.907623,693.378479 442.033417,691.740723 444.066956,690.068176 
	C444.066956,690.068176 444.099548,690.161255 444.717560,689.901306 
	C445.862854,688.966797 447.008148,688.032288 448.058594,687.077148 
	C448.058594,687.077148 448.065491,687.173950 448.594543,686.990234 
	C448.790131,686.682617 448.985718,686.374939 449.072296,686.061401 
	C449.072296,686.061401 449.093414,686.168457 449.808990,686.065552 
	C450.244446,685.383972 450.679932,684.702393 451.854675,683.992493 
	C452.622925,683.805359 453.565857,683.841125 454.132660,683.396912 
	C460.656342,678.285461 467.118652,673.095825 473.606262,667.938171 
	C478.220154,664.269958 483.036285,660.830750 487.431396,656.917725 
	C497.737579,647.742188 508.081024,638.586426 517.975830,628.976196 
	C531.571411,615.771667 545.312744,602.646545 557.979675,588.576355 
	C570.712708,574.432739 582.558228,559.442139 594.125488,544.312561 
	C602.783508,532.988220 610.659302,521.031616 618.354370,509.017609 
	C623.368408,501.189362 627.692444,492.883118 631.862915,484.559204 
	C637.796753,472.715668 643.531555,460.759979 648.928711,448.663605 
	C653.677368,438.020599 657.928467,427.151672 662.248474,416.322357 
	C667.591248,402.929199 672.778259,389.473846 678.705322,375.716003 
	C679.189331,373.810120 679.673401,371.904236 680.040894,370.004913 
	C680.040894,370.004913 680.057434,370.120453 680.761414,369.802917 
	C681.132874,367.862823 681.504333,365.922729 682.033569,363.598633 
	C682.033569,363.598633 682.031677,363.183472 682.728943,362.835022 
	C683.196167,360.894745 683.663330,358.954498 684.823242,356.676819 
	C685.827576,350.768890 686.831909,344.860931 688.204407,338.186371 
	C689.139954,331.522217 690.182373,324.870880 690.981079,318.190369 
	C691.785217,311.463806 692.145996,304.680328 693.077637,297.974121 
	C693.847595,292.431549 695.115417,286.954620 696.256348,281.468109 
	C697.451050,275.723511 699.590820,270.038757 699.844421,264.263153 
	C700.397461,251.668823 700.082153,239.032593 699.927979,226.415878 
	C699.909363,224.894958 698.694824,223.388657 698.016663,221.013687 
	C698.666077,215.724625 699.222473,210.421860 699.998962,205.151505 
	C700.485718,201.847443 701.830566,198.590439 701.820129,195.315414 
	C701.810242,192.203140 700.538330,189.094894 699.950684,185.062836 
	C699.297363,178.049942 698.729614,171.027161 697.920166,164.032303 
	C697.754333,162.598999 696.683350,161.270401 696.019714,159.166428 
	C691.137878,153.930344 685.954651,149.374329 677.065613,151.018661 
	C670.531372,151.954559 663.997742,152.894287 657.462769,153.825073 
	C652.358826,154.552032 647.231873,155.147583 642.160156,156.053497 
	C640.370483,156.373169 638.714172,157.439377 636.143860,158.006821 
	C633.374023,158.661545 630.604248,159.316254 627.396240,159.978577 
	C627.396240,159.978577 626.991089,160.145508 626.107666,160.011017 
	C624.109314,160.011963 621.960815,159.527832 620.136780,160.092102 
	C607.707275,163.937042 595.282837,167.819077 582.982239,172.053513 
	C572.658997,175.607254 562.545532,179.660019 551.397034,180.093521 
	C547.630615,180.239960 543.893311,181.482468 540.179565,182.376785 
	C539.335938,182.579941 538.645081,183.417480 537.122192,184.003342 
	C532.760803,185.724060 528.399414,187.444763 523.264587,189.006012 
	C518.638550,191.040863 513.941833,192.932343 509.413330,195.165100 
	C506.755981,196.475281 504.366394,198.328674 501.978821,199.953064 
	C501.978821,199.953064 501.980103,199.829681 501.199249,199.992905 
	C500.099365,200.647507 498.999481,201.302109 497.135071,201.994049 
	C496.367218,202.196579 495.514740,202.248138 494.844025,202.624023 
	C482.591248,209.490662 470.326630,216.337280 458.137329,223.315353 
	C450.675873,227.586838 443.106750,231.734146 436.012146,236.563370 
	C429.695343,240.863174 423.964966,246.024506 417.105164,250.975037 
	C416.407104,249.885696 415.208649,248.845139 415.096832,247.698624 
	C414.585114,242.450592 414.377777,237.172852 413.749451,231.165695 
	C412.774567,227.773514 411.799683,224.381332 410.994293,220.131195 
	C410.665253,214.438843 410.492889,208.731644 409.954590,203.059143 
	C409.567230,198.977203 408.691803,194.941574 408.003296,189.965500 
	C407.307892,184.334335 407.976166,178.818222 406.375610,172.961578 
	C402.871704,160.140213 401.700348,146.701523 398.885620,133.664078 
	C397.222382,125.960098 394.239807,118.540947 392.004272,110.243271 
	C391.346985,108.762688 390.689667,107.282112 390.035309,105.402641 
	C390.035309,105.402641 389.881348,105.034653 390.011505,104.270546 
	C389.349304,102.784935 388.687103,101.299332 388.018005,99.404907 
	C388.018005,99.404907 387.855286,99.029808 387.971802,98.217644 
	C385.675171,92.762398 383.378540,87.307144 381.069061,81.961807 
	C381.069061,81.961807 381.179352,81.952858 381.023651,81.112366 
	C379.124268,76.338593 377.340851,71.513367 375.258270,66.820915 
	C374.592102,65.319893 373.133636,64.170502 371.997223,62.425812 
	C371.997223,62.425812 371.851807,62.014458 372.006561,61.300262 
	C371.352814,60.819305 370.699036,60.338348 369.765137,59.205070 
	C368.122650,55.619301 366.849823,51.793430 364.724518,48.521255 
	C362.918304,45.740372 362.596191,40.662842 356.823456,41.261822 
	C355.677979,40.884373 354.351074,39.928986 353.416229,40.222477 
	C346.947723,42.253246 341.190948,45.508476 336.958893,50.953709 
	C336.958893,50.953709 336.924011,50.866444 336.222351,50.979221 
	C335.766907,51.637722 335.311462,52.296223 334.112915,52.967587 
	C332.727814,53.929626 331.342682,54.891670 329.251556,55.982494 
	C328.120972,56.630226 326.990356,57.277962 325.973816,57.937862 
	C325.973816,57.937862 325.967957,57.823334 325.225403,57.980015 
	C323.775665,58.634361 322.325928,59.288712 320.994354,59.960056 
	C320.994354,59.960056 321.001495,59.840897 320.191833,60.011806 
	C318.746399,60.653202 317.300995,61.294594 315.983093,61.953957 
	C315.983093,61.953957 315.987946,61.825256 315.191742,61.984039 
	C310.080933,64.315796 304.970154,66.647545 299.110718,68.983810 
	C293.722229,71.971184 288.333771,74.958549 282.282440,78.016495 
	C281.469635,78.647873 280.656860,79.279251 279.963226,79.928833 
	C279.963226,79.928833 279.959320,79.808319 279.323761,79.956161 
	C278.832214,80.276321 278.340698,80.596474 277.955780,80.936943 
	C277.955780,80.936943 277.954224,80.828384 277.415924,81.033440 
	C277.211761,81.349464 277.007599,81.665482 276.422546,81.982964 
	C276.422546,81.982964 276.069824,82.126846 275.348663,81.981995 
	C273.205688,83.644249 271.062744,85.306511 268.989288,86.984917 
	C268.989288,86.984917 268.973114,86.915421 268.257568,87.012970 
	C267.798370,87.659775 267.339172,88.306580 266.970551,88.967255 
	C266.970551,88.967255 266.971863,88.875610 266.475403,88.998070 
	C266.313629,89.050690 266.151886,89.103302 265.277863,89.004417 
	C264.793640,89.666138 264.309418,90.327858 263.419830,90.988091 
	C263.419830,90.988091 263.045715,91.144173 262.481232,91.042633 
	C262.272430,91.349258 262.063629,91.655884 261.973816,91.972664 
z"/>
<path fill="#FEF5F9" opacity="1.000000" stroke="none" 
	d="
M414.061157,231.905792 
	C414.377777,237.172852 414.585114,242.450592 415.096832,247.698624 
	C415.208649,248.845139 416.407104,249.885696 417.536011,251.190552 
	C417.967834,251.605972 417.968872,251.805893 417.807495,252.099121 
	C417.779144,252.449066 417.913177,252.705688 418.414124,252.953094 
	C419.515106,252.943604 420.249207,252.943359 421.147888,253.177887 
	C421.884491,252.962692 422.456482,252.512711 423.315674,251.928955 
	C424.390686,251.526474 425.178497,251.257797 426.346558,250.989136 
	C429.679474,249.636932 432.676758,248.373093 435.574493,246.911911 
	C439.961151,244.699997 443.336212,241.365265 448.766388,240.150604 
	C460.008087,237.635971 461.099152,235.215347 461.117676,225.630676 
	C466.501251,222.521683 471.536987,219.300323 476.960785,216.990143 
	C484.825500,213.640289 492.970642,210.948837 500.999115,208.313507 
	C501.003021,209.099167 501.003967,209.547897 500.882172,210.282776 
	C500.845245,211.720291 500.931030,212.871643 500.832458,214.344757 
	C498.967133,215.027725 497.276001,215.720413 495.607605,215.669373 
	C493.328308,215.599670 482.158569,220.106079 481.322815,222.110779 
	C480.902435,223.119095 481.364838,224.495438 481.454651,226.214584 
	C540.963806,203.441498 601.734253,188.516693 664.573486,179.941025 
	C665.091187,183.259598 665.962097,186.170563 665.928711,189.071121 
	C665.744873,205.029175 665.604736,220.995743 664.940308,236.938156 
	C664.194824,254.823593 661.164307,272.380829 657.343811,289.903442 
	C650.706055,320.347260 639.789246,349.162476 625.420593,376.619415 
	C613.323853,399.735199 598.701721,421.292236 582.120667,441.537445 
	C565.346863,462.017883 547.199524,481.046631 527.223328,498.454742 
	C506.427094,516.577454 484.899933,533.705750 461.645508,548.509949 
	C442.600220,560.634521 423.421539,572.646362 403.619843,583.458984 
	C383.506927,594.441528 362.862854,604.583618 341.896454,613.836304 
	C317.601288,624.558044 292.830109,634.245544 268.023743,643.750793 
	C247.551392,651.595337 226.735733,658.545837 206.050980,665.832153 
	C201.636307,667.387329 197.129883,668.681946 191.772598,670.379578 
	C192.390671,667.918030 192.622787,666.653870 193.024414,665.446045 
	C197.569351,651.777161 202.075562,638.094849 206.723785,624.460999 
	C210.766251,612.604004 214.789307,600.734253 219.175491,589.002686 
	C222.422073,580.319214 226.221466,571.841675 229.803223,563.284363 
	C241.729599,534.790588 252.830276,505.911469 265.866364,477.934418 
	C276.452942,455.214294 289.579773,433.689636 301.192841,411.432770 
	C313.654541,387.549500 329.233398,366.010529 347.859650,346.591370 
	C357.404572,336.640106 366.727325,326.475128 376.104706,316.364258 
	C378.355652,313.937286 379.931824,311.149384 377.881714,307.861755 
	C375.798462,304.521027 372.870331,303.536194 368.878357,304.486328 
	C356.573608,307.414917 349.144684,317.043793 340.794556,325.127686 
	C334.802673,330.928467 330.401611,338.336182 324.785858,344.572266 
	C319.472382,350.472656 312.606262,355.136444 308.026672,361.498474 
	C301.071930,371.160065 295.163910,381.633087 289.419678,392.095520 
	C278.856628,411.334808 268.097351,430.511017 258.620667,450.288910 
	C250.020416,468.237701 242.785324,486.858673 235.361862,505.349304 
	C222.237335,538.040344 210.551804,571.194824 204.073257,605.981018 
	C203.144531,610.967834 200.630325,615.639282 199.358505,620.587402 
	C197.872787,626.367676 197.009415,632.305359 195.736557,638.144409 
	C195.351105,639.912720 194.380051,641.545654 193.888351,643.299805 
	C192.204514,649.306885 190.558594,655.325928 189.010635,661.369202 
	C188.142883,664.756897 187.496490,668.201233 186.750381,671.620056 
	C186.280441,671.519470 185.810486,671.418823 185.340546,671.318237 
	C185.124924,669.920410 184.909317,668.522583 184.685608,667.072266 
	C183.420135,669.156616 182.648743,672.146301 181.205780,672.516174 
	C173.628265,674.458679 165.526016,676.368774 158.700882,671.004456 
	C137.374756,654.242554 121.694069,632.857605 111.147240,608.099121 
	C104.938133,593.523315 100.966248,577.996155 95.914322,562.921570 
	C95.655128,562.148132 94.698578,561.608398 94.056015,560.509033 
	C93.351639,552.042847 92.657944,544.027527 92.265068,535.718384 
	C92.710388,533.616699 92.938850,531.811096 92.986038,530.000671 
	C93.340950,516.384216 93.663666,502.766846 93.989761,489.149567 
	C94.530128,466.584198 97.882828,444.346252 102.051064,422.228882 
	C109.338043,383.563019 121.319412,346.389252 138.550003,310.993866 
	C153.032272,281.244141 169.232498,252.433807 189.159775,225.961411 
	C202.602081,208.103943 216.745102,190.751923 231.084702,173.600204 
	C239.593048,163.423279 249.110794,154.091873 258.114227,144.324539 
	C258.958496,143.408646 259.367493,142.091522 260.141296,140.665924 
	C265.210175,136.587616 270.116333,132.804092 275.389801,129.011398 
	C282.021820,125.320663 288.147858,121.374336 294.577576,118.008018 
	C312.669373,108.535973 330.890717,99.311554 349.049500,89.967140 
	C352.449738,88.217392 354.618225,89.030991 356.947388,92.239761 
	C370.392303,110.762199 381.536987,130.483932 389.152618,152.117081 
	C394.842224,168.279099 398.682098,184.809540 400.148224,201.956741 
	C401.455444,217.245682 401.623352,232.425262 399.062042,247.573120 
	C397.795593,255.062866 396.357788,262.523651 394.860962,270.050659 
	C394.817078,270.069946 394.909760,270.036194 395.357300,269.967529 
	C399.473267,266.953156 403.234375,263.973663 406.997742,260.997070 
	C407.000000,261.000000 406.995758,260.997314 407.216919,260.894897 
	C407.712921,260.594391 407.896179,260.332275 408.224731,260.003296 
	C408.461670,260.000519 408.935577,259.995117 409.161133,260.249146 
	C410.574768,258.722565 412.627136,257.021454 412.799652,255.147339 
	C413.504791,247.485641 413.635834,239.771118 414.024292,232.045776 
	C414.070251,232.015503 414.061127,231.905792 414.061157,231.905792 
z"/>
<path fill="#F8C1D8" opacity="1.000000" stroke="none" 
	d="
M275.022461,129.020569 
	C270.116333,132.804092 265.210175,136.587616 259.794739,140.714264 
	C243.099442,153.968857 226.193634,166.087921 210.899338,179.981049 
	C188.994049,199.879501 169.166977,221.803574 152.073914,246.172455 
	C132.864502,273.558533 117.039879,302.608215 105.845367,334.138641 
	C98.561935,354.653168 92.448273,375.494171 89.810181,397.179047 
	C88.012962,411.951996 85.849594,426.736542 85.169525,441.576416 
	C84.074036,465.481415 85.104660,489.400543 88.079269,513.176514 
	C89.036873,520.830566 90.650658,528.402649 91.964256,536.012207 
	C92.657944,544.027527 93.351639,552.042847 94.030670,560.970215 
	C95.334778,576.381287 96.310684,590.921997 98.061356,605.368713 
	C100.129234,622.433105 102.141357,639.560486 105.486458,656.400513 
	C110.322601,680.746765 115.889412,704.972046 121.982162,729.036926 
	C127.108559,749.284790 133.462677,769.220886 139.190186,789.318665 
	C140.104874,792.528320 141.634216,793.558899 144.972916,792.551392 
	C158.633011,788.429016 172.572632,785.119263 185.993958,780.343140 
	C212.902542,770.767273 239.724243,760.889893 266.241638,750.286194 
	C301.348450,736.247864 334.865112,718.812134 367.409637,699.638062 
	C400.026306,680.421509 431.561676,659.559448 461.056763,635.681030 
	C485.991547,615.494446 510.006104,594.423035 531.867493,570.847656 
	C550.969910,550.247620 568.731018,528.675415 584.948669,505.740936 
	C600.045654,484.391205 613.552917,462.107330 625.442444,438.868622 
	C632.469299,425.134216 638.599182,410.940857 645.277222,396.643921 
	C645.673645,397.104279 646.122925,397.625977 646.947510,398.583466 
	C650.115234,391.304413 653.182861,384.255402 656.250427,377.206421 
	C655.990601,377.029877 655.730835,376.853333 655.471008,376.676819 
	C654.587097,377.330109 653.703247,377.983398 651.935852,379.289703 
	C652.907837,376.060730 653.490967,373.857819 654.239014,371.712433 
	C655.004395,369.517273 656.088745,367.426361 656.763672,365.207764 
	C665.015747,338.082367 672.277954,310.718811 676.651917,282.654449 
	C677.999512,274.007935 679.982727,265.442963 680.950256,256.759918 
	C681.830139,248.863983 681.446167,240.835037 682.109375,232.905701 
	C683.938110,211.043900 684.959229,189.204941 683.169556,167.269348 
	C682.793335,162.657669 680.354431,162.094345 677.080750,162.124054 
	C674.629089,162.146286 672.142761,162.686539 669.742249,163.280487 
	C658.340515,166.101608 647.021729,169.282211 635.565857,171.855850 
	C598.707520,180.136322 562.870667,191.548355 527.938782,205.924744 
	C520.163452,209.124741 511.976715,211.325302 504.135254,213.678070 
	C507.186462,211.856201 509.962097,210.024384 512.997192,208.881683 
	C528.757263,202.947952 544.583557,197.190002 560.386719,191.370834 
	C560.170593,190.729370 559.954468,190.087921 559.738281,189.446457 
	C556.953003,190.239410 554.090271,190.833206 551.402771,191.877899 
	C548.345642,193.066299 545.528381,194.879959 542.459900,196.029663 
	C534.861389,198.876770 527.179077,201.500381 519.530334,204.213562 
	C515.018555,205.813980 510.506622,207.414001 506.191345,208.733002 
	C508.144104,207.523346 509.873474,206.539383 511.660889,205.675644 
	C521.774841,200.788315 531.902649,195.929794 542.389099,191.004242 
	C560.711670,183.703735 578.555725,176.154053 596.676147,169.339417 
	C606.538757,165.630356 616.870789,163.169403 626.991089,160.145508 
	C626.991089,160.145508 627.396240,159.978577 628.048340,160.001587 
	C631.463928,159.658310 634.227478,159.292038 637.393433,158.932556 
	C643.808167,157.935394 649.846252,157.063507 655.826111,155.893921 
	C663.229248,154.445923 670.584045,152.751007 677.959717,151.162766 
	C685.954651,149.374329 691.137878,153.930344 696.009888,159.973175 
	C697.273804,169.181564 698.547607,177.583221 699.821411,185.984863 
	C700.538330,189.094894 701.810242,192.203140 701.820129,195.315414 
	C701.830566,198.590439 700.485718,201.847443 699.998962,205.151505 
	C699.222473,210.421860 698.666077,215.724625 698.003296,221.920868 
	C698.000366,224.655457 698.060364,226.484161 698.013306,228.310089 
	C697.697510,240.569016 698.012329,252.892242 696.803711,265.063660 
	C695.963623,273.523956 692.519165,281.693604 691.138733,290.140259 
	C689.304565,301.362885 688.270264,312.720459 687.045166,324.036621 
	C686.436340,329.659851 686.168518,335.319977 685.746460,340.963409 
	C686.015442,340.979675 686.284485,340.995972 686.553467,341.012238 
	C686.981079,340.325836 687.408630,339.639435 687.836243,338.953003 
	C686.831909,344.860931 685.827576,350.768890 684.175598,357.051758 
	C683.029236,359.345642 682.530457,361.264557 682.031677,363.183472 
	C682.031677,363.183472 682.033569,363.598633 681.677246,364.021851 
	C680.899780,366.336853 680.478577,368.228638 680.057434,370.120453 
	C680.057434,370.120453 680.040894,370.004913 679.782471,370.191986 
	C679.026855,372.267822 678.529663,374.156586 678.032471,376.045380 
	C672.778259,389.473846 667.591248,402.929199 662.248474,416.322357 
	C657.928467,427.151672 653.677368,438.020599 648.928711,448.663605 
	C643.531555,460.759979 637.796753,472.715668 631.862915,484.559204 
	C627.692444,492.883118 623.368408,501.189362 618.354370,509.017609 
	C610.659302,521.031616 602.783508,532.988220 594.125488,544.312561 
	C582.558228,559.442139 570.712708,574.432739 557.979675,588.576355 
	C545.312744,602.646545 531.571411,615.771667 517.975830,628.976196 
	C508.081024,638.586426 497.737579,647.742188 487.431396,656.917725 
	C483.036285,660.830750 478.220154,664.269958 473.606262,667.938171 
	C467.118652,673.095825 460.656342,678.285461 454.132660,683.396912 
	C453.565857,683.841125 452.622925,683.805359 451.142334,684.046753 
	C449.984436,684.790161 449.538940,685.479309 449.093445,686.168457 
	C449.093414,686.168457 449.072296,686.061401 448.861511,686.156677 
	C448.455658,686.559265 448.260559,686.866577 448.065491,687.173950 
	C448.065491,687.173950 448.058594,687.077148 447.725220,687.053467 
	C446.294403,688.073608 445.196991,689.117432 444.099548,690.161255 
	C444.099548,690.161255 444.066956,690.068176 443.734863,690.048035 
	C441.289215,691.727539 439.175598,693.427185 437.062012,695.126831 
	C437.061981,695.126770 437.028442,695.050659 436.694214,695.029175 
	C434.433868,696.515869 432.507751,698.024048 430.581635,699.532227 
	C430.581635,699.532227 430.447998,699.465637 430.190338,699.447327 
	C429.614685,699.889465 429.296692,700.349915 428.978699,700.810364 
	C426.230225,702.472473 423.481781,704.134583 420.076111,705.951050 
	C418.949921,706.750732 418.480896,707.396057 418.011902,708.041443 
	C418.011902,708.041443 418.000671,707.995911 417.649719,708.000854 
	C412.281677,711.069824 407.204590,714.041443 402.277283,717.243652 
	C400.322113,718.514282 398.699402,720.296448 396.925323,721.845703 
	C396.925323,721.845703 396.543854,721.956787 396.088318,722.093994 
	C395.442108,722.543762 395.251495,722.856201 395.060883,723.168701 
	C395.060883,723.168701 395.054504,723.073975 394.746704,723.048218 
	C393.628113,723.370056 392.817291,723.717529 392.006470,724.065063 
	C388.155121,727.014587 384.531921,730.345154 380.396973,732.821045 
	C374.732330,736.212952 368.605011,738.821228 362.809784,742.008545 
	C354.064270,746.818604 345.434296,751.838684 336.066101,756.891052 
	C334.254852,757.702148 333.132721,758.391724 332.010559,759.081299 
	C332.010559,759.081238 332.004364,759.012512 331.667328,759.010986 
	C329.572113,760.064392 327.813965,761.119202 326.055786,762.174011 
	C326.055786,762.174011 326.040222,762.074768 325.724915,762.051086 
	C324.288147,762.739075 323.166656,763.450745 322.045166,764.162415 
	C322.045166,764.162415 322.029755,764.067200 321.716736,764.044434 
	C320.276428,764.711914 319.149170,765.402283 318.021912,766.092651 
	C318.021881,766.092590 318.013428,766.019897 317.836365,766.097961 
	C317.380615,766.320862 317.177246,766.536621 317.049194,766.823303 
	C314.297791,768.127014 311.546387,769.430725 308.093018,770.873779 
	C304.945587,772.399658 302.500092,773.786133 300.054596,775.172607 
	C300.054596,775.172607 300.039429,775.074463 299.698547,775.049194 
	C296.589417,776.406494 293.821198,777.789001 291.053009,779.171509 
	C291.053009,779.171509 291.037231,779.073059 290.705627,779.050049 
	C289.102295,779.868896 287.830536,780.710754 286.558777,781.552551 
	C286.558777,781.552551 286.423798,781.600220 286.131317,781.487488 
	C285.536713,781.521484 285.234589,781.668152 284.932465,781.814880 
	C278.924164,784.544312 272.915863,787.273743 266.192322,790.029663 
	C264.997681,790.428467 264.518311,790.800903 264.038940,791.173340 
	C264.038940,791.173340 264.029327,791.067688 263.713013,791.046753 
	C261.933777,791.718140 260.470825,792.410400 259.007874,793.102661 
	C259.007874,793.102661 259.010498,793.025940 258.659790,793.023560 
	C251.214996,796.067566 244.120926,799.114014 237.026855,802.160461 
	C237.026855,802.160461 237.015701,802.059326 236.697357,802.036438 
	C234.909729,802.614075 233.440414,803.214539 231.971100,803.815002 
	C227.454193,805.615051 222.951492,807.451721 218.417480,809.207642 
	C208.130524,813.191467 197.832260,817.146179 187.530670,821.092041 
	C180.572144,823.757507 173.648483,826.527100 166.611313,828.967712 
	C163.632294,830.000916 160.428711,830.549805 157.280624,830.899658 
	C149.827621,831.727844 142.346725,832.305115 134.372223,832.555786 
	C129.036636,829.051086 124.294174,825.820496 119.330338,822.976196 
	C117.433342,821.889282 115.029640,821.686707 112.856857,821.081116 
	C112.856857,821.081116 112.960793,821.058655 112.864166,820.842041 
	C112.452644,820.422424 112.137741,820.219299 111.822830,820.016235 
	C111.822838,820.016235 111.429352,820.010742 111.196854,819.638428 
	C110.358734,818.845581 109.753105,818.425110 109.147476,818.004639 
	C108.805214,817.585632 108.462952,817.166565 108.053009,816.101562 
	C107.269463,813.972900 106.553604,812.490234 105.837746,811.007568 
	C105.837753,811.007568 105.957161,811.011963 105.980759,810.658447 
	C104.608772,806.209961 103.213196,802.114990 101.817612,798.020020 
	C101.817604,798.020020 101.941933,798.019348 101.971954,797.703857 
	C101.382378,796.257141 100.762779,795.125977 100.143181,793.994751 
	C98.423218,788.563293 96.705513,783.131104 94.982712,777.700562 
	C92.971062,771.359558 90.923912,765.029541 88.963348,758.672791 
	C88.494141,757.151489 88.306801,755.543274 88.005173,753.142883 
	C86.267563,745.409973 84.610893,738.482422 82.707581,731.623413 
	C82.071198,729.330017 80.804657,727.211548 79.826164,725.013123 
	C79.826164,725.013123 79.948196,725.015625 79.972763,724.687500 
	C79.715111,722.910828 79.432884,721.462341 79.150650,720.013855 
	C79.150650,720.013855 78.983490,719.598816 78.993317,718.954468 
	C76.959122,711.201233 74.915092,704.092346 72.871048,696.983398 
	C72.871048,696.983398 72.974663,696.997314 72.998276,696.611755 
	C72.071739,691.816833 71.121590,687.407471 70.171440,682.998108 
	C69.443787,679.335449 68.716141,675.672791 67.998199,671.147400 
	C67.276489,667.526978 66.545074,664.769348 65.813644,662.011658 
	C65.813644,662.011658 65.948059,662.017761 65.978729,661.638672 
	C65.066689,655.191162 64.123962,649.122742 63.181236,643.054321 
	C60.113224,634.310730 58.699432,625.309814 58.992111,615.137634 
	C58.672844,610.952881 58.411213,607.666992 57.994144,604.400818 
	C57.083183,597.267090 56.093239,590.143494 55.135559,583.015747 
	C54.755657,574.019470 54.375759,565.023193 53.988163,555.119995 
	C53.667015,549.607056 53.051826,544.998352 53.090729,540.395264 
	C53.292290,516.544495 53.660942,492.695160 53.971359,468.845306 
	C53.980469,468.422394 53.989574,467.999451 54.329624,466.954681 
	C55.768879,455.511688 56.799637,444.681854 58.011715,433.872345 
	C58.873951,426.182831 59.980434,418.520752 60.977905,410.846405 
	C61.372776,407.670319 61.767639,404.494202 62.825489,400.924835 
	C64.316132,395.961731 65.143784,391.391937 65.971436,386.822113 
	C65.971436,386.822113 65.969246,386.400909 66.317093,385.956360 
	C67.102669,383.294952 67.540398,381.078033 67.978134,378.861145 
	C68.648338,376.500763 69.318542,374.140350 70.321716,371.121033 
	C71.084679,368.267761 71.514664,366.073456 71.944649,363.879150 
	C71.944649,363.879150 71.959106,363.996216 72.211838,363.809937 
	C73.951683,358.701202 75.438782,353.778748 76.925888,348.856323 
	C76.925880,348.856323 76.942787,348.981598 77.209312,348.822876 
	C77.961655,347.061340 78.447472,345.458496 78.933289,343.855652 
	C78.933289,343.855652 78.948845,343.965576 79.137299,343.871399 
	C79.539688,343.516876 79.753616,343.256531 80.117722,342.666168 
	C81.489120,338.510498 82.710327,334.684845 83.931519,330.859192 
	C83.931519,330.859192 83.943565,330.976532 84.231384,330.857758 
	C85.002907,329.441467 85.486610,328.143951 85.970306,326.846436 
	C88.683380,320.896912 91.396461,314.947388 94.820488,308.848389 
	C96.016953,307.404785 96.502487,306.110626 96.988022,304.816498 
	C96.988022,304.816498 96.989708,304.416046 97.409157,304.159485 
	C99.199104,301.225525 100.569595,298.548157 101.940094,295.870758 
	C101.940102,295.870758 101.946739,295.956909 102.260185,295.936096 
	C104.711220,291.879059 106.848801,287.842896 108.986389,283.806702 
	C108.986389,283.806702 108.979225,283.417358 109.413132,283.185364 
	C110.594292,281.161530 111.341553,279.369659 112.088814,277.577820 
	C112.088814,277.577820 112.229568,277.277008 112.702805,277.369995 
	C113.759460,276.258423 114.342896,275.053864 114.926331,273.849304 
	C114.926323,273.849304 114.940536,273.965179 115.231133,273.864960 
	C116.322144,272.127899 117.122566,270.491058 117.922989,268.854248 
	C117.922997,268.854248 117.935242,268.966461 118.225296,268.867401 
	C119.674301,266.454285 120.833237,264.140228 121.992172,261.826172 
	C121.992165,261.826172 121.999146,261.428711 122.402863,261.188629 
	C123.178650,260.249481 123.550713,259.550385 123.922783,258.851318 
	C123.922783,258.851318 123.933914,258.943817 124.268311,258.928040 
	C125.099068,257.465271 125.595436,256.018280 126.091805,254.571259 
	C126.091805,254.571259 126.237732,254.263580 126.693680,254.368347 
	C128.422836,252.587448 129.696030,250.701752 130.969238,248.816071 
	C130.969238,248.816071 130.962021,248.415665 131.378357,248.168549 
	C133.180420,245.246292 134.566116,242.571121 135.951813,239.895950 
	C135.951813,239.895950 135.953171,239.974213 136.269867,239.928940 
	C137.704376,237.881393 138.822174,235.879120 139.939972,233.876846 
	C139.939972,233.876846 139.944931,233.961243 140.273010,233.925049 
	C141.041443,232.874802 141.481796,231.860733 141.922165,230.846680 
	C141.922165,230.846680 141.935699,230.939880 142.249054,230.937180 
	C143.352081,229.572693 144.141769,228.210907 144.931458,226.849121 
	C144.931442,226.849121 144.944321,226.967331 145.220520,226.868652 
	C145.974243,225.796371 146.451782,224.822769 146.929321,223.849182 
	C146.929321,223.849182 146.943161,223.966660 147.222931,223.866852 
	C147.996002,222.781189 148.489288,221.795334 148.982574,220.809479 
	C148.982574,220.809479 148.983704,220.418304 149.404053,220.185699 
	C151.198898,217.595581 152.573380,215.238052 153.947876,212.880539 
	C153.947876,212.880539 153.951813,212.963745 154.252563,212.934082 
	C155.028030,212.230896 155.502777,211.557388 155.977509,210.883865 
	C158.699203,206.585434 161.420898,202.287003 164.835144,197.842270 
	C165.996719,196.422241 166.465744,195.148514 166.934784,193.874786 
	C166.934784,193.874786 166.939896,193.956650 167.251587,193.932999 
	C169.706192,190.551971 171.849106,187.194595 173.992035,183.837219 
	C173.992035,183.837219 173.990204,183.429291 174.415512,183.187256 
	C177.550781,178.250854 180.260757,173.556458 182.970734,168.862061 
	C182.970718,168.862061 182.995834,168.425644 183.281860,168.085114 
	C183.705856,167.443375 183.843811,167.142136 183.981766,166.840912 
	C183.964828,166.494064 184.107147,166.234528 185.006409,165.969147 
	C186.062637,164.840805 186.521164,163.805618 186.979691,162.770447 
	C187.721573,161.900742 188.463455,161.031021 189.848923,160.071259 
	C190.970291,159.268448 191.448074,158.555695 191.925858,157.842941 
	C191.925858,157.842941 191.938248,157.938400 192.247772,157.945343 
	C193.013367,157.249344 193.469421,156.546402 193.925491,155.843475 
	C193.925491,155.843475 193.937927,155.937119 194.256271,155.955414 
	C195.358612,154.930908 196.142609,153.888092 196.926605,152.845291 
	C196.926605,152.845291 196.939011,152.940765 197.245361,152.939941 
	C198.010483,152.240768 198.469269,151.542435 198.928040,150.844086 
	C198.928040,150.844086 198.940094,150.940536 199.243164,150.941559 
	C200.013916,150.252594 200.481583,149.562622 200.949265,148.872650 
	C200.949265,148.872650 200.953125,148.959915 201.263641,148.943207 
	C204.359421,145.900162 207.144684,142.873795 209.929932,139.847443 
	C209.929932,139.847443 209.941650,139.941956 210.251465,139.947083 
	C212.684082,137.584091 214.806854,135.215958 216.929642,132.847839 
	C216.929642,132.847839 216.941437,132.941895 217.250656,132.947723 
	C222.347702,127.917381 227.135529,122.881203 231.923355,117.845016 
	C231.923355,117.845009 231.936295,117.938354 232.246918,117.945213 
	C233.013397,117.249191 233.469269,116.546318 233.925140,115.843445 
	C233.925140,115.843445 233.939804,115.929947 234.274048,115.976807 
	C235.717026,114.965370 236.825760,113.907066 237.934509,112.848763 
	C237.934509,112.848763 237.933624,112.947510 238.237411,112.929062 
	C239.000702,112.219269 239.460205,111.527916 239.919724,110.836563 
	C239.919724,110.836563 239.933151,110.933716 240.231110,110.928436 
	C241.005875,110.245979 241.482712,109.568810 241.959534,108.891632 
	C241.959518,108.891632 241.969070,108.968384 242.270996,108.940926 
	C243.036072,108.241890 243.499207,107.570312 243.962357,106.898727 
	C243.962357,106.898727 243.974411,106.973984 244.301758,106.955261 
	C246.961090,105.401947 250.551163,104.956802 249.905441,100.843575 
	C249.905441,100.843575 249.949615,100.922119 250.267212,100.976212 
	C251.387024,100.628899 252.189224,100.227493 252.991440,99.826088 
	C252.991440,99.826088 252.982849,99.958725 253.267639,99.937820 
	C254.011169,99.227257 254.469910,98.537598 254.928650,97.847946 
	C254.928665,97.847946 254.940582,97.940903 255.249710,97.944023 
	C256.014740,97.247429 256.470642,96.547722 256.926514,95.848007 
	C256.926514,95.848000 256.942017,95.931412 257.274841,95.980209 
	C258.382294,95.301842 259.156860,94.574669 259.931458,93.847496 
	C259.931458,93.847496 259.954010,93.960327 260.163452,93.869118 
	C260.572266,93.468033 260.771606,93.158165 260.970917,92.848282 
	C260.970917,92.848282 260.976471,92.977119 261.174133,92.873795 
	C261.572235,92.464737 261.772705,92.158997 261.973175,91.853256 
	C261.973175,91.853256 261.973816,91.972664 262.156921,91.898727 
	C262.575256,91.597923 262.810486,91.371048 263.045715,91.144173 
	C263.045715,91.144173 263.419830,90.988091 263.941956,90.990829 
	C264.989014,90.683029 265.513977,90.372490 266.257477,89.920593 
	C266.641327,89.478020 266.806580,89.176811 266.971863,88.875610 
	C266.971863,88.875610 266.970551,88.967255 267.264587,88.936249 
	C268.030121,88.241959 268.501617,87.578682 268.973114,86.915421 
	C268.973114,86.915421 268.989288,86.984917 269.325439,86.989212 
	C271.797699,85.371284 273.933746,83.749069 276.069824,82.126846 
	C276.069824,82.126846 276.422546,81.982964 276.881531,81.876488 
	C277.545105,81.456131 277.749664,81.142258 277.954224,80.828384 
	C277.954224,80.828384 277.955780,80.936943 278.235443,80.948250 
	C278.996521,80.575813 279.477936,80.192070 279.959320,79.808319 
	C279.959320,79.808319 279.963226,79.928833 280.234253,79.962662 
	C281.318604,79.312965 282.131958,78.629440 282.945282,77.945915 
	C288.333771,74.958549 293.722229,71.971184 299.872803,68.993301 
	C305.752594,66.610275 310.870270,64.217766 315.987946,61.825256 
	C315.987946,61.825256 315.983093,61.953957 316.291260,61.979416 
	C318.066772,61.283550 319.534119,60.562225 321.001495,59.840900 
	C321.001495,59.840897 320.994354,59.960056 321.320618,59.991932 
	C323.087250,59.290314 324.527588,58.556820 325.967957,57.823330 
	C325.967957,57.823334 325.973816,57.937862 326.326324,57.981873 
	C327.772034,57.999111 328.865265,57.972336 330.417358,57.962639 
	C333.535767,57.992500 336.213867,57.808918 338.850800,58.059231 
	C344.219879,58.568897 346.351471,62.041321 343.589355,66.580833 
	C340.777466,71.202057 337.750977,76.037392 333.725037,79.512047 
	C320.463409,90.957741 306.641968,101.751968 293.168762,112.956635 
	C286.960541,118.119545 281.061646,123.654388 275.022461,129.020569 
M656.412476,374.483734 
	C656.412476,374.483734 656.523376,374.415497 656.412476,374.483734 
z"/>
<path fill="#FBDFEB" opacity="1.000000" stroke="none" 
	d="
M275.389801,129.011414 
	C281.061646,123.654388 286.960541,118.119545 293.168762,112.956635 
	C306.641968,101.751968 320.463409,90.957741 333.725037,79.512047 
	C337.750977,76.037392 340.777466,71.202057 343.589355,66.580833 
	C346.351471,62.041321 344.219879,58.568897 338.850800,58.059231 
	C336.213867,57.808918 333.535767,57.992500 330.427368,57.615044 
	C329.971497,56.784821 329.964539,56.319267 329.957581,55.853714 
	C331.342682,54.891670 332.727814,53.929626 334.827209,52.931915 
	C336.002350,52.219646 336.463165,51.543045 336.924011,50.866447 
	C336.924011,50.866444 336.958893,50.953709 337.297668,50.963638 
	C339.278748,50.296909 340.952667,49.687408 342.557373,48.931030 
	C347.424561,46.636894 352.264923,44.285912 357.115753,41.957069 
	C362.596191,40.662842 362.918304,45.740372 364.724518,48.521255 
	C366.849823,51.793430 368.122650,55.619301 369.921997,59.853058 
	C370.669800,61.005516 371.260803,61.509991 371.851807,62.014462 
	C371.851807,62.014458 371.997223,62.425812 372.009155,63.024544 
	C372.680328,65.745445 373.339539,67.867615 374.003540,70.436005 
	C374.548431,74.254608 374.590088,77.807304 375.731323,80.962234 
	C378.187042,87.750916 381.574982,94.208855 383.921478,101.029198 
	C388.592438,114.605667 392.818146,128.335342 397.227814,142.001724 
	C397.733185,141.879044 398.238556,141.756348 398.743958,141.633667 
	C397.713409,136.930740 396.813354,132.194366 395.618561,127.533554 
	C394.199158,121.996597 392.526276,116.524612 391.184998,111.015526 
	C391.406799,111.006577 391.850555,110.993698 391.850525,110.993698 
	C394.239807,118.540947 397.222382,125.960098 398.885620,133.664078 
	C401.700348,146.701523 402.871704,160.140213 406.375610,172.961578 
	C407.976166,178.818222 407.307892,184.334335 408.005737,190.901337 
	C408.008209,201.556274 408.008209,211.275375 408.005524,221.455276 
	C407.669342,228.276779 407.335907,234.637466 406.945679,241.404694 
	C406.014954,247.436127 405.042023,253.049835 404.400604,258.701141 
	C404.325958,259.358887 406.086029,260.224792 406.995514,260.994171 
	C403.234375,263.973663 399.473267,266.953156 395.356079,269.966309 
	C395.000000,270.000000 394.997559,269.997559 394.997559,269.997559 
	C396.357788,262.523651 397.795593,255.062866 399.062042,247.573120 
	C401.623352,232.425262 401.455444,217.245682 400.148224,201.956741 
	C398.682098,184.809540 394.842224,168.279099 389.152618,152.117081 
	C381.536987,130.483932 370.392303,110.762199 356.947388,92.239761 
	C354.618225,89.030991 352.449738,88.217392 349.049500,89.967140 
	C330.890717,99.311554 312.669373,108.535973 294.577576,118.008018 
	C288.147858,121.374336 282.021820,125.320663 275.389801,129.011414 
z"/>
<path fill="#F8C8DD" opacity="1.000000" stroke="none" 
	d="
M500.996155,207.976562 
	C492.970642,210.948837 484.825500,213.640289 476.960785,216.990143 
	C471.536987,219.300323 466.501251,222.521683 460.775909,225.696442 
	C455.432922,229.218857 450.456207,232.176849 445.814972,235.590866 
	C439.071808,240.551056 432.570648,245.840225 425.966309,250.989105 
	C425.178497,251.257797 424.390686,251.526474 423.018982,251.930664 
	C421.951141,252.358475 421.467224,252.650787 420.983276,252.943115 
	C420.249207,252.943359 419.515106,252.943604 418.390198,252.714493 
	C417.999359,252.485123 417.969879,252.005798 417.969879,252.005798 
	C417.968872,251.805893 417.967834,251.605972 417.971283,251.105835 
	C423.964966,246.024506 429.695343,240.863174 436.012146,236.563370 
	C443.106750,231.734146 450.675873,227.586838 458.137329,223.315353 
	C470.326630,216.337280 482.591248,209.490662 494.844025,202.624023 
	C495.514740,202.248138 496.367218,202.196579 497.865112,201.969498 
	C499.723480,201.239853 500.851776,200.534760 501.980103,199.829681 
	C501.980103,199.829681 501.978821,199.953064 502.298645,199.942139 
	C508.864288,197.226089 515.136780,194.579727 521.330383,191.760010 
	C522.404175,191.271179 523.143982,190.048965 524.038025,189.165497 
	C528.399414,187.444763 532.760803,185.724060 537.847229,184.004562 
	C540.984680,183.640869 541.775391,184.587448 540.532837,186.919098 
	C536.486511,188.778580 532.743591,190.486404 529.137878,192.446777 
	C519.725220,197.564377 510.372681,202.792511 500.996155,207.976562 
z"/>
<path fill="#FCFAFB" opacity="1.000000" stroke="none" 
	d="
M540.898743,186.882507 
	C541.775391,184.587448 540.984680,183.640869 538.228088,183.984406 
	C538.645081,183.417480 539.335938,182.579941 540.179565,182.376785 
	C543.893311,181.482468 547.630615,180.239960 551.397034,180.093521 
	C562.545532,179.660019 572.658997,175.607254 582.982239,172.053513 
	C595.282837,167.819077 607.707275,163.937042 620.136780,160.092102 
	C621.960815,159.527832 624.109314,160.011963 626.549377,160.078278 
	C616.870789,163.169403 606.538757,165.630356 596.676147,169.339417 
	C578.555725,176.154053 560.711670,183.703735 542.113281,190.754913 
	C541.282349,189.336029 541.090515,188.109268 540.898743,186.882507 
z"/>
<path fill="#FAF5F7" opacity="1.000000" stroke="none" 
	d="
M688.020325,338.569702 
	C687.408630,339.639435 686.981079,340.325836 686.553467,341.012238 
	C686.284485,340.995972 686.015442,340.979675 685.746460,340.963409 
	C686.168518,335.319977 686.436340,329.659851 687.045166,324.036621 
	C688.270264,312.720459 689.304565,301.362885 691.138733,290.140259 
	C692.519165,281.693604 695.963623,273.523956 696.803711,265.063660 
	C698.012329,252.892242 697.697510,240.569016 698.013306,228.310089 
	C698.060364,226.484161 698.000366,224.655457 698.012268,222.351822 
	C698.694824,223.388657 699.909363,224.894958 699.927979,226.415878 
	C700.082153,239.032593 700.397461,251.668823 699.844421,264.263153 
	C699.590820,270.038757 697.451050,275.723511 696.256348,281.468109 
	C695.115417,286.954620 693.847595,292.431549 693.077637,297.974121 
	C692.145996,304.680328 691.785217,311.463806 690.981079,318.190369 
	C690.182373,324.870880 689.139954,331.522217 688.020325,338.569702 
z"/>
<path fill="#F8C1D8" opacity="1.000000" stroke="none" 
	d="
M390.963257,111.024475 
	C392.526276,116.524612 394.199158,121.996597 395.618561,127.533554 
	C396.813354,132.194366 397.713409,136.930740 398.743958,141.633667 
	C398.238556,141.756348 397.733185,141.879044 397.227814,142.001724 
	C392.818146,128.335342 388.592438,114.605667 383.921478,101.029198 
	C381.574982,94.208855 378.187042,87.750916 375.731323,80.962234 
	C374.590088,77.807304 374.548431,74.254608 374.271027,70.659836 
	C376.748962,74.275917 378.964142,78.114388 381.179352,81.952858 
	C381.179352,81.952858 381.069061,81.961807 381.031403,82.303215 
	C383.280945,88.106354 385.568115,93.568077 387.855286,99.029800 
	C387.855286,99.029808 388.018005,99.404907 387.993042,99.988129 
	C388.605835,102.059120 389.243591,103.546890 389.881348,105.034653 
	C389.881348,105.034653 390.035309,105.402641 390.003601,106.002457 
	C390.302368,108.076332 390.632812,109.550400 390.963257,111.024475 
z"/>
<path fill="#F6F1F3" opacity="1.000000" stroke="none" 
	d="
M53.594696,469.026581 
	C53.660942,492.695160 53.292290,516.544495 53.090729,540.395264 
	C53.051826,544.998352 53.667015,549.607056 53.965622,554.658569 
	C53.305347,553.587830 52.103867,552.074158 52.097279,550.555176 
	C51.985523,524.782166 52.004234,499.008453 52.076645,473.235168 
	C52.080421,471.891663 52.820660,470.550232 53.594696,469.026581 
z"/>
<path fill="#EFEDEE" opacity="1.000000" stroke="none" 
	d="
M407.002441,240.998169 
	C407.335907,234.637466 407.669342,228.276779 408.357422,221.458023 
	C409.416321,220.996368 410.120544,220.992767 410.824799,220.989151 
	C411.799683,224.381332 412.774567,227.773514 413.905273,231.535736 
	C414.061127,231.905792 414.070251,232.015503 413.732147,232.281250 
	C412.910187,235.372330 412.426331,238.197662 411.530823,241.014496 
	C409.746948,241.003372 408.374695,241.000778 407.002441,240.998169 
z"/>
<path fill="#FAF5F7" opacity="1.000000" stroke="none" 
	d="
M60.545647,410.919342 
	C59.980434,418.520752 58.873951,426.182831 58.011715,433.872345 
	C56.799637,444.681854 55.768879,455.511688 54.417915,466.649933 
	C54.445984,456.932251 54.260201,446.857880 55.126411,436.874756 
	C55.869724,428.308105 57.811584,419.845062 59.263733,411.343109 
	C59.291172,411.182465 59.819023,411.107330 60.545647,410.919342 
z"/>
<path fill="#FAF5F7" opacity="1.000000" stroke="none" 
	d="
M677.512695,151.090714 
	C670.584045,152.751007 663.229248,154.445923 655.826111,155.893921 
	C649.846252,157.063507 643.808167,157.935394 637.395752,158.742661 
	C636.995605,158.545975 636.997009,158.164734 636.997009,158.164734 
	C638.714172,157.439377 640.370483,156.373169 642.160156,156.053497 
	C647.231873,155.147583 652.358826,154.552032 657.462769,153.825073 
	C663.997742,152.894287 670.531372,151.954559 677.512695,151.090714 
z"/>
<path fill="#FAF5F7" opacity="1.000000" stroke="none" 
	d="
M356.969604,41.609444 
	C352.264923,44.285912 347.424561,46.636894 342.557373,48.931030 
	C340.952667,49.687408 339.278748,50.296909 337.253845,50.946716 
	C341.190948,45.508476 346.947723,42.253246 353.416229,40.222477 
	C354.351074,39.928986 355.677979,40.884373 356.969604,41.609444 
z"/>
<path fill="#FCFAFB" opacity="1.000000" stroke="none" 
	d="
M410.909546,220.560181 
	C410.120544,220.992767 409.416321,220.996368 408.360168,220.997223 
	C408.008209,211.275375 408.008209,201.556274 408.021149,191.361237 
	C408.691803,194.941574 409.567230,198.977203 409.954590,203.059143 
	C410.492889,208.731644 410.665253,214.438843 410.909546,220.560181 
z"/>
<path fill="#FCFAFB" opacity="1.000000" stroke="none" 
	d="
M55.069313,583.479553 
	C56.093239,590.143494 57.083183,597.267090 57.994144,604.400818 
	C58.411213,607.666992 58.672844,610.952881 58.985588,614.681091 
	C58.310223,614.282471 57.150219,613.474304 57.075813,612.576294 
	C56.285736,603.040161 55.668137,593.489807 55.069313,583.479553 
z"/>
<path fill="#E0DEE0" opacity="1.000000" stroke="none" 
	d="
M397.299500,721.869324 
	C398.699402,720.296448 400.322113,718.514282 402.277283,717.243652 
	C407.204590,714.041443 412.281677,711.069824 417.670898,708.010742 
	C415.411255,710.351379 412.998199,713.017029 410.094177,714.941895 
	C406.150787,717.555786 401.831665,719.602844 397.299500,721.869324 
z"/>
<path fill="#FAF5F7" opacity="1.000000" stroke="none" 
	d="
M79.899467,725.433472 
	C80.804657,727.211548 82.071198,729.330017 82.707581,731.623413 
	C84.610893,738.482422 86.267563,745.409973 87.998840,752.730957 
	C86.756645,750.719238 85.075928,748.407227 84.405617,745.832092 
	C82.688385,739.235046 81.420403,732.521118 79.899467,725.433472 
z"/>
<path fill="#FCFAFB" opacity="1.000000" stroke="none" 
	d="
M523.651306,189.085754 
	C523.143982,190.048965 522.404175,191.271179 521.330383,191.760010 
	C515.136780,194.579727 508.864288,197.226089 502.237427,199.934479 
	C504.366394,198.328674 506.755981,196.475281 509.413330,195.165100 
	C513.941833,192.932343 518.638550,191.040863 523.651306,189.085754 
z"/>
<path fill="#E0DEE0" opacity="1.000000" stroke="none" 
	d="
M237.439224,802.081055 
	C244.120926,799.114014 251.214996,796.067566 258.697815,793.028625 
	C257.902985,794.033264 256.874420,795.448669 255.508850,795.954956 
	C249.677338,798.116821 243.746307,800.010315 237.439224,802.081055 
z"/>
<path fill="#F6F1F3" opacity="1.000000" stroke="none" 
	d="
M113.016464,821.404602 
	C115.029640,821.686707 117.433342,821.889282 119.330338,822.976196 
	C124.294174,825.820496 129.036636,829.051086 133.927277,832.462646 
	C127.050156,829.107788 120.113113,825.417908 113.016464,821.404602 
z"/>
<path fill="#F6F1F3" opacity="1.000000" stroke="none" 
	d="
M381.101501,81.532608 
	C378.964142,78.114388 376.748962,74.275917 374.266266,70.213608 
	C373.339539,67.867615 372.680328,65.745445 372.029388,63.241753 
	C373.133636,64.170502 374.592102,65.319893 375.258270,66.820915 
	C377.340851,71.513367 379.124268,76.338593 381.101501,81.532608 
z"/>
<path fill="#FAF5F7" opacity="1.000000" stroke="none" 
	d="
M231.572906,117.911484 
	C227.135529,122.881203 222.347702,127.917381 217.203629,132.941833 
	C221.639069,127.946053 226.430756,122.961998 231.572906,117.911484 
z"/>
<path fill="#FAF5F7" opacity="1.000000" stroke="none" 
	d="
M72.954681,697.417480 
	C74.915092,704.092346 76.959122,711.201233 78.984848,718.730896 
	C78.382225,718.954773 77.346146,718.854980 77.279968,718.546875 
	C75.801613,711.662292 74.430061,704.754822 72.954681,697.417480 
z"/>
<path fill="#FEF5F9" opacity="1.000000" stroke="none" 
	d="
M699.886047,185.523849 
	C698.547607,177.583221 697.273804,169.181564 696.014832,160.336716 
	C696.683350,161.270401 697.754333,162.598999 697.920166,164.032303 
	C698.729614,171.027161 699.297363,178.049942 699.886047,185.523849 
z"/>
<path fill="#F6F1F3" opacity="1.000000" stroke="none" 
	d="
M182.590103,168.918594 
	C180.260757,173.556458 177.550781,178.250854 174.503174,183.003113 
	C176.846848,178.365707 179.528152,173.670410 182.590103,168.918594 
z"/>
<path fill="#F6F1F3" opacity="1.000000" stroke="none" 
	d="
M63.111794,643.470825 
	C64.123962,649.122742 65.066689,655.191162 65.968323,661.705139 
	C65.277740,661.446472 64.124695,660.785706 64.059540,660.031067 
	C63.595860,654.660583 63.354481,649.270935 63.111794,643.470825 
z"/>
<path fill="#F6F1F3" opacity="1.000000" stroke="none" 
	d="
M387.913544,98.623718 
	C385.568115,93.568077 383.280945,88.106354 381.037842,82.248260 
	C383.378540,87.307144 385.675171,92.762398 387.913544,98.623718 
z"/>
<path fill="#FAF5F7" opacity="1.000000" stroke="none" 
	d="
M209.579041,139.912491 
	C207.144684,142.873795 204.359421,145.900162 201.220520,148.936432 
	C201.521774,143.968994 206.423660,142.950928 209.579041,139.912491 
z"/>
<path fill="#FCFAFB" opacity="1.000000" stroke="none" 
	d="
M315.589844,61.904648 
	C310.870270,64.217766 305.752594,66.610275 300.247131,68.991043 
	C304.970154,66.647545 310.080933,64.315796 315.589844,61.904648 
z"/>
<path fill="#FAF5F7" opacity="1.000000" stroke="none" 
	d="
M76.583649,349.024109 
	C75.438782,353.778748 73.951683,358.701202 72.152908,363.812378 
	C73.307968,359.064697 74.774689,354.128326 76.583649,349.024109 
z"/>
<path fill="#F6F1F3" opacity="1.000000" stroke="none" 
	d="
M173.627365,183.921417 
	C171.849106,187.194595 169.706192,190.551971 167.211304,193.925247 
	C168.993805,190.629303 171.128265,187.317459 173.627365,183.921417 
z"/>
<path fill="#F6F1F3" opacity="1.000000" stroke="none" 
	d="
M101.894402,798.451172 
	C103.213196,802.114990 104.608772,806.209961 105.972778,810.717651 
	C102.538132,807.721802 101.957420,803.398438 101.894402,798.451172 
z"/>
<path fill="#FAF5F7" opacity="1.000000" stroke="none" 
	d="
M108.655708,283.963593 
	C106.848801,287.842896 104.711220,291.879059 102.217445,295.929749 
	C104.015854,292.002960 106.170441,288.061737 108.655708,283.963593 
z"/>
<path fill="#FEF5F9" opacity="1.000000" stroke="none" 
	d="
M65.615234,387.001953 
	C65.143784,391.391937 64.316132,395.961731 63.185524,400.763489 
	C63.674725,396.390900 64.466881,391.786316 65.615234,387.001953 
z"/>
<path fill="#FCFAFB" opacity="1.000000" stroke="none" 
	d="
M83.596039,331.021545 
	C82.710327,334.684845 81.489120,338.510498 79.915718,342.666962 
	C79.563522,342.997772 79.158905,342.996918 79.158905,342.996918 
	C80.526123,339.059265 81.893341,335.121582 83.596039,331.021545 
z"/>
<path fill="#FAF5F7" opacity="1.000000" stroke="none" 
	d="
M216.582047,132.912506 
	C214.806854,135.215958 212.684082,137.584091 210.204224,139.941193 
	C211.976242,137.612488 214.105347,135.294815 216.582047,132.912506 
z"/>
<path fill="#FAF5F7" opacity="1.000000" stroke="none" 
	d="
M70.103600,683.428955 
	C71.121590,687.407471 72.071739,691.816833 72.988647,696.663147 
	C71.982185,692.686646 71.008972,688.273193 70.103600,683.428955 
z"/>
<path fill="#FAF5F7" opacity="1.000000" stroke="none" 
	d="
M101.568321,295.926453 
	C100.569595,298.548157 99.199104,301.225525 97.496002,303.979065 
	C98.507782,301.364197 99.852165,298.673187 101.568321,295.926453 
z"/>
<path fill="#E0DEE0" opacity="1.000000" stroke="none" 
	d="
M291.442932,779.094116 
	C293.821198,777.789001 296.589417,776.406494 299.748047,775.052979 
	C297.369934,776.393616 294.601379,777.705139 291.442932,779.094116 
z"/>
<path fill="#FAF5F7" opacity="1.000000" stroke="none" 
	d="
M135.621216,240.023895 
	C134.566116,242.571121 133.180420,245.246292 131.457748,247.984711 
	C132.510742,245.415939 133.900681,242.783890 135.621216,240.023895 
z"/>
<path fill="#E0DEE0" opacity="1.000000" stroke="none" 
	d="
M437.421936,695.071533 
	C439.175598,693.427185 441.289215,691.727539 443.781006,690.065430 
	C442.033417,691.740723 439.907623,693.378479 437.421936,695.071533 
z"/>
<path fill="#EFEDEE" opacity="1.000000" stroke="none" 
	d="
M249.592667,100.988800 
	C250.551163,104.956802 246.961090,105.401947 244.264191,106.948868 
	C245.692810,105.018799 247.486343,103.076408 249.592667,100.988800 
z"/>
<path fill="#FAF5F7" opacity="1.000000" stroke="none" 
	d="
M153.571777,212.931915 
	C152.573380,215.238052 151.198898,217.595581 149.481583,220.006134 
	C150.491058,217.700546 151.843384,215.341919 153.571777,212.931915 
z"/>
<path fill="#F6F1F3" opacity="1.000000" stroke="none" 
	d="
M65.891899,662.455566 
	C66.545074,664.769348 67.276489,667.526978 67.982635,670.712402 
	C63.790520,669.238342 67.012474,665.554749 65.891899,662.455566 
z"/>
<path fill="#E0DEE0" opacity="1.000000" stroke="none" 
	d="
M300.457886,775.097412 
	C302.500092,773.786133 304.945587,772.399658 307.774475,771.023743 
	C305.725616,772.363647 303.293427,773.692993 300.457886,775.097412 
z"/>
<path fill="#E0DEE0" opacity="1.000000" stroke="none" 
	d="
M430.881897,699.347717 
	C432.507751,698.024048 434.433868,696.515869 436.735535,695.033691 
	C435.134796,696.427612 433.158508,697.795410 430.881897,699.347717 
z"/>
<path fill="#EFEDEE" opacity="1.000000" stroke="none" 
	d="
M275.709229,82.054428 
	C273.933746,83.749069 271.797699,85.371284 269.290710,86.981140 
	C271.062744,85.306511 273.205688,83.644249 275.709229,82.054428 
z"/>
<path fill="#FCFAFB" opacity="1.000000" stroke="none" 
	d="
M636.570435,158.085785 
	C636.997009,158.164734 636.995605,158.545975 636.993286,158.735870 
	C634.227478,159.292038 631.463928,159.658310 628.267395,159.997787 
	C630.604248,159.316254 633.374023,158.661545 636.570435,158.085785 
z"/>
<path fill="#FAF5F7" opacity="1.000000" stroke="none" 
	d="
M139.617920,234.011108 
	C138.822174,235.879120 137.704376,237.881393 136.231674,239.920380 
	C137.016479,238.019852 138.156189,236.082596 139.617920,234.011108 
z"/>
<path fill="#FAF5F7" opacity="1.000000" stroke="none" 
	d="
M121.660385,261.972778 
	C120.833237,264.140228 119.674301,266.454285 118.168976,268.863556 
	C118.991264,266.678955 120.159927,264.399170 121.660385,261.972778 
z"/>
<path fill="#FAF5F7" opacity="1.000000" stroke="none" 
	d="
M130.600662,248.896210 
	C129.696030,250.701752 128.422836,252.587448 126.844711,254.289734 
	C127.770554,252.396332 129.001312,250.686356 130.600662,248.896210 
z"/>
<path fill="#E0DEE0" opacity="1.000000" stroke="none" 
	d="
M326.449280,762.097412 
	C327.813965,761.119202 329.572113,760.064392 331.701080,759.018188 
	C330.328827,760.024780 328.585785,761.022766 326.449280,762.097412 
z"/>
<path fill="#FAF5F7" opacity="1.000000" stroke="none" 
	d="
M111.828796,277.765747 
	C111.341553,279.369659 110.594292,281.161530 109.490860,283.006836 
	C109.946053,281.358093 110.757416,279.655853 111.828796,277.765747 
z"/>
<path fill="#FAF5F7" opacity="1.000000" stroke="none" 
	d="
M71.586990,364.042786 
	C71.514664,366.073456 71.084679,368.267761 70.410759,370.728516 
	C70.520996,368.732117 70.875160,366.469269 71.586990,364.042786 
z"/>
<path fill="#FEF5F9" opacity="1.000000" stroke="none" 
	d="
M67.616806,379.024780 
	C67.540398,381.078033 67.102669,383.294952 66.397095,385.761536 
	C66.504662,383.736969 66.880074,381.462677 67.616806,379.024780 
z"/>
<path fill="#FAF5F7" opacity="1.000000" stroke="none" 
	d="
M125.832184,254.759918 
	C125.595436,256.018280 125.099068,257.465271 124.222229,258.921265 
	C124.418694,257.603027 124.995636,256.275818 125.832184,254.759918 
z"/>
<path fill="#FAF5F7" opacity="1.000000" stroke="none" 
	d="
M680.409424,369.961670 
	C680.478577,368.228638 680.899780,366.336853 681.598389,364.213837 
	C681.504333,365.922729 681.132874,367.862823 680.409424,369.961670 
z"/>
<path fill="#FAF5F7" opacity="1.000000" stroke="none" 
	d="
M117.603302,269.003662 
	C117.122566,270.491058 116.322144,272.127899 115.172806,273.862457 
	C115.643799,272.357819 116.463707,270.755432 117.603302,269.003662 
z"/>
<path fill="#F6F1F3" opacity="1.000000" stroke="none" 
	d="
M391.185028,111.015518 
	C390.632812,109.550400 390.302368,108.076332 390.002136,106.201897 
	C390.689667,107.282112 391.346985,108.762688 391.927429,110.618484 
	C391.850555,110.993698 391.406799,111.006577 391.185028,111.015518 
z"/>
<path fill="#FAF5F7" opacity="1.000000" stroke="none" 
	d="
M678.368896,375.880676 
	C678.529663,374.156586 679.026855,372.267822 679.840759,370.188721 
	C679.673401,371.904236 679.189331,373.810120 678.368896,375.880676 
z"/>
<path fill="#FCFAFB" opacity="1.000000" stroke="none" 
	d="
M325.596680,57.901672 
	C324.527588,58.556820 323.087250,59.290314 321.261536,59.983437 
	C322.325928,59.288712 323.775665,58.634361 325.596680,57.901672 
z"/>
<path fill="#F6F1F3" opacity="1.000000" stroke="none" 
	d="
M389.946411,104.652603 
	C389.243591,103.546890 388.605835,102.059120 387.996521,100.192535 
	C388.687103,101.299332 389.349304,102.784935 389.946411,104.652603 
z"/>
<path fill="#FAF5F7" opacity="1.000000" stroke="none" 
	d="
M237.601654,112.912857 
	C236.825760,113.907066 235.717026,114.965370 234.230560,115.970993 
	C234.991501,114.937859 236.130142,113.957397 237.601654,112.912857 
z"/>
<path fill="#FAF5F7" opacity="1.000000" stroke="none" 
	d="
M78.533028,343.921661 
	C78.447472,345.458496 77.961655,347.061340 77.146118,348.823486 
	C77.255188,347.317719 77.693977,345.652710 78.533028,343.921661 
z"/>
<path fill="#FCFAFB" opacity="1.000000" stroke="none" 
	d="
M320.596680,59.926353 
	C319.534119,60.562225 318.066772,61.283550 316.227478,61.970428 
	C317.300995,61.294594 318.746399,60.653202 320.596680,59.926353 
z"/>
<path fill="#E0DEE0" opacity="1.000000" stroke="none" 
	d="
M232.349594,803.890076 
	C233.440414,803.214539 234.909729,802.614075 236.748199,802.038208 
	C235.654282,802.696960 234.191177,803.331055 232.349594,803.890076 
z"/>
<path fill="#FAF5F7" opacity="1.000000" stroke="none" 
	d="
M682.380310,363.009247 
	C682.530457,361.264557 683.029236,359.345642 683.829224,357.220459 
	C683.663330,358.954498 683.196167,360.894745 682.380310,363.009247 
z"/>
<path fill="#FAF5F7" opacity="1.000000" stroke="none" 
	d="
M144.571045,226.914062 
	C144.141769,228.210907 143.352081,229.572693 142.202332,230.931351 
	C142.631714,229.611816 143.421158,228.295410 144.571045,226.914062 
z"/>
<path fill="#F6F1F3" opacity="1.000000" stroke="none" 
	d="
M105.918411,811.384827 
	C106.553604,812.490234 107.269463,813.972900 107.978775,815.833252 
	C107.314507,814.728027 106.656799,813.245056 105.918411,811.384827 
z"/>
<path fill="#F6F1F3" opacity="1.000000" stroke="none" 
	d="
M100.066727,794.349365 
	C100.762779,795.125977 101.382378,796.257141 101.964203,797.765503 
	C101.281044,796.996460 100.635658,795.850159 100.066727,794.349365 
z"/>
<path fill="#FCFAFB" opacity="1.000000" stroke="none" 
	d="
M85.580650,326.918488 
	C85.486610,328.143951 85.002907,329.441467 84.172447,330.855591 
	C84.280792,329.644989 84.735893,328.317749 85.580650,326.918488 
z"/>
<path fill="#FAF5F7" opacity="1.000000" stroke="none" 
	d="
M96.595688,304.898438 
	C96.502487,306.110626 96.016953,307.404785 95.199364,308.842743 
	C95.312653,307.651154 95.758003,306.315765 96.595688,304.898438 
z"/>
<path fill="#FCFAFB" opacity="1.000000" stroke="none" 
	d="
M329.604553,55.918106 
	C329.964539,56.319267 329.971497,56.784821 329.968475,57.597969 
	C328.865265,57.972336 327.772034,57.999111 326.269287,57.975792 
	C326.990356,57.277962 328.120972,56.630226 329.604553,55.918106 
z"/>
<path fill="#E0DEE0" opacity="1.000000" stroke="none" 
	d="
M259.385925,793.045166 
	C260.470825,792.410400 261.933777,791.718140 263.765808,791.051819 
	C262.677948,791.714417 261.220947,792.351074 259.385925,793.045166 
z"/>
<path fill="#FAF5F7" opacity="1.000000" stroke="none" 
	d="
M196.578979,152.911346 
	C196.142609,153.888092 195.358612,154.930908 194.209473,155.948975 
	C194.640015,154.941971 195.435684,153.959686 196.578979,152.911346 
z"/>
<path fill="#E0DEE0" opacity="1.000000" stroke="none" 
	d="
M286.860168,781.375732 
	C287.830536,780.710754 289.102295,779.868896 290.755402,779.053101 
	C289.811707,779.785706 288.486633,780.492371 286.860168,781.375732 
z"/>
<path fill="#FAF5F7" opacity="1.000000" stroke="none" 
	d="
M114.582703,273.913177 
	C114.342896,275.053864 113.759460,276.258423 112.847961,277.289307 
	C113.092957,276.069458 113.666016,275.023254 114.582703,273.913177 
z"/>
<path fill="#EFEDEE" opacity="1.000000" stroke="none" 
	d="
M282.613861,77.981201 
	C282.131958,78.629440 281.318604,79.312965 280.174683,79.953560 
	C280.656860,79.279251 281.469635,78.647873 282.613861,77.981201 
z"/>
<path fill="#E0DEE0" opacity="1.000000" stroke="none" 
	d="
M318.377533,766.023804 
	C319.149170,765.402283 320.276428,764.711914 321.764954,764.046265 
	C320.995148,764.698853 319.864136,765.326904 318.377533,766.023804 
z"/>
<path fill="#E0DEE0" opacity="1.000000" stroke="none" 
	d="
M322.397095,764.080994 
	C323.166656,763.450745 324.288147,762.739075 325.775024,762.054810 
	C325.009949,762.721313 323.879517,763.360474 322.397095,764.080994 
z"/>
<path fill="#E0DEE0" opacity="1.000000" stroke="none" 
	d="
M332.356384,759.019104 
	C333.132721,758.391724 334.254852,757.702148 335.736938,757.018921 
	C334.965363,757.669128 333.833801,758.313049 332.356384,759.019104 
z"/>
<path fill="#F6F1F3" opacity="1.000000" stroke="none" 
	d="
M166.605072,194.014847 
	C166.465744,195.148514 165.996719,196.422241 165.198318,197.838318 
	C165.337753,196.705399 165.806549,195.430161 166.605072,194.014847 
z"/>
<path fill="#FCFAFB" opacity="1.000000" stroke="none" 
	d="
M501.589661,199.911285 
	C500.851776,200.534760 499.723480,201.239853 498.247375,201.950836 
	C498.999481,201.302109 500.099365,200.647507 501.589661,199.911285 
z"/>
<path fill="#FAF5F7" opacity="1.000000" stroke="none" 
	d="
M141.552307,230.913910 
	C141.481796,231.860733 141.041443,232.874802 140.231293,233.918152 
	C140.301834,232.958664 140.742157,231.969894 141.552307,230.913910 
z"/>
<path fill="#E0DEE0" opacity="1.000000" stroke="none" 
	d="
M444.408569,690.031250 
	C445.196991,689.117432 446.294403,688.073608 447.772644,687.063782 
	C447.008148,688.032288 445.862854,688.966797 444.408569,690.031250 
z"/>
<path fill="#FAF5F7" opacity="1.000000" stroke="none" 
	d="
M186.673279,162.927765 
	C186.521164,163.805618 186.062637,164.840805 185.235657,165.932098 
	C185.367081,165.020508 185.866989,164.052795 186.673279,162.927765 
z"/>
<path fill="#FEF5F9" opacity="1.000000" stroke="none" 
	d="
M259.606445,93.914124 
	C259.156860,94.574669 258.382294,95.301842 257.232880,95.974152 
	C257.665863,95.273102 258.473633,94.626923 259.606445,93.914124 
z"/>
<path fill="#FAF5F7" opacity="1.000000" stroke="none" 
	d="
M79.087692,720.408569 
	C79.432884,721.462341 79.715111,722.910828 79.964478,724.747925 
	C79.629326,723.692078 79.327034,722.247681 79.087692,720.408569 
z"/>
<path fill="#FAF5F7" opacity="1.000000" stroke="none" 
	d="
M146.557526,223.915405 
	C146.451782,224.822769 145.974243,225.796371 145.161118,226.866089 
	C145.278931,225.968689 145.732346,224.975159 146.557526,223.915405 
z"/>
<path fill="#F6F1F3" opacity="1.000000" stroke="none" 
	d="
M371.929199,61.657364 
	C371.260803,61.509991 370.669800,61.005516 370.062073,60.179214 
	C370.699036,60.338348 371.352814,60.819305 371.929199,61.657364 
z"/>
<path fill="#E0DEE0" opacity="1.000000" stroke="none" 
	d="
M418.377808,708.025818 
	C418.480896,707.396057 418.949921,706.750732 419.748810,706.075317 
	C419.633698,706.700256 419.188721,707.355225 418.377808,708.025818 
z"/>
<path fill="#FAF5F7" opacity="1.000000" stroke="none" 
	d="
M336.573181,50.922836 
	C336.463165,51.543045 336.002350,52.219646 335.198792,52.925484 
	C335.311462,52.296223 335.766907,51.637722 336.573181,50.922836 
z"/>
<path fill="#E0DEE0" opacity="1.000000" stroke="none" 
	d="
M449.451233,686.117004 
	C449.538940,685.479309 449.984436,684.790161 450.772705,684.060913 
	C450.679932,684.702393 450.244446,685.383972 449.451233,686.117004 
z"/>
<path fill="#EFEDEE" opacity="1.000000" stroke="none" 
	d="
M243.605194,106.949432 
	C243.499207,107.570312 243.036072,108.241890 242.232559,108.936676 
	C242.344131,108.306633 242.796082,107.653389 243.605194,106.949432 
z"/>
<path fill="#FEF5F9" opacity="1.000000" stroke="none" 
	d="
M256.580017,95.915085 
	C256.470642,96.547722 256.014740,97.247429 255.203232,97.937996 
	C255.309586,97.279953 255.771545,96.631058 256.580017,95.915085 
z"/>
<path fill="#FEF5F9" opacity="1.000000" stroke="none" 
	d="
M254.581116,97.914917 
	C254.469910,98.537598 254.011169,99.227257 253.201996,99.927414 
	C253.312241,99.285904 253.772903,98.633896 254.581116,97.914917 
z"/>
<path fill="#FAF5F7" opacity="1.000000" stroke="none" 
	d="
M155.623642,210.945465 
	C155.502777,211.557388 155.028030,212.230896 154.211411,212.927628 
	C154.336273,212.302917 154.803024,211.654999 155.623642,210.945465 
z"/>
<path fill="#FAF5F7" opacity="1.000000" stroke="none" 
	d="
M191.572845,157.910492 
	C191.448074,158.555695 190.970291,159.268448 190.125137,159.978516 
	C190.245117,159.309906 190.732468,158.643967 191.572845,157.910492 
z"/>
<path fill="#FAF5F7" opacity="1.000000" stroke="none" 
	d="
M148.671906,220.950607 
	C148.489288,221.795334 147.996002,222.781189 147.163834,223.864578 
	C147.337036,223.005325 147.849121,222.048538 148.671906,220.950607 
z"/>
<path fill="#FEF5F9" opacity="1.000000" stroke="none" 
	d="
M266.038910,90.061951 
	C265.513977,90.372490 264.989014,90.683029 264.144623,90.991570 
	C264.309418,90.327858 264.793640,89.666138 265.643860,89.306801 
	C266.009827,89.609184 266.038910,90.061943 266.038910,90.061951 
z"/>
<path fill="#FAF5F7" opacity="1.000000" stroke="none" 
	d="
M193.578766,155.910950 
	C193.469421,156.546402 193.013367,157.249344 192.200058,157.939041 
	C192.305893,157.276688 192.768967,156.627548 193.578766,155.910950 
z"/>
<path fill="#EFEDEE" opacity="1.000000" stroke="none" 
	d="
M268.615356,86.964188 
	C268.501617,87.578682 268.030121,88.241959 267.219299,88.929306 
	C267.339172,88.306580 267.798370,87.659775 268.615356,86.964188 
z"/>
<path fill="#FAF5F7" opacity="1.000000" stroke="none" 
	d="
M198.580505,150.910751 
	C198.469269,151.542435 198.010483,152.240768 197.197601,152.933960 
	C197.306641,152.278351 197.769791,151.627884 198.580505,150.910751 
z"/>
<path fill="#FAF5F7" opacity="1.000000" stroke="none" 
	d="
M200.597977,148.926071 
	C200.481583,149.562622 200.013916,150.252594 199.194946,150.935486 
	C199.311325,150.278763 199.779007,149.629135 200.597977,148.926071 
z"/>
<path fill="#FAF5F7" opacity="1.000000" stroke="none" 
	d="
M233.578369,115.910797 
	C233.469269,116.546318 233.013397,117.249191 232.200226,117.939011 
	C232.305801,117.276688 232.768723,116.627426 233.578369,115.910797 
z"/>
<path fill="#EFEDEE" opacity="1.000000" stroke="none" 
	d="
M239.569824,110.898270 
	C239.460205,111.527916 239.000702,112.219269 238.189529,112.916962 
	C238.298553,112.268860 238.759247,111.614418 239.569824,110.898270 
z"/>
<path fill="#EFEDEE" opacity="1.000000" stroke="none" 
	d="
M241.605621,108.944473 
	C241.482712,109.568810 241.005875,110.245979 240.182526,110.921677 
	C240.307892,110.279236 240.779800,109.638268 241.605621,108.944473 
z"/>
<path fill="#FEF5F9" opacity="1.000000" stroke="none" 
	d="
M252.638672,99.901436 
	C252.189224,100.227493 251.387024,100.628899 250.222198,100.974304 
	C250.668365,100.604469 251.477142,100.290627 252.638672,99.901436 
z"/>
<path fill="#F6F1F3" opacity="1.000000" stroke="none" 
	d="
M109.123566,818.315430 
	C109.753105,818.425110 110.358734,818.845581 111.014816,819.563721 
	C110.410065,819.449646 109.754860,819.037964 109.123566,818.315430 
z"/>
<path fill="#E0DEE0" opacity="1.000000" stroke="none" 
	d="
M392.366150,724.027954 
	C392.817291,723.717529 393.628113,723.370056 394.793152,723.058105 
	C394.340210,723.392761 393.533020,723.691833 392.366150,724.027954 
z"/>
<path fill="#FAF5F7" opacity="1.000000" stroke="none" 
	d="
M123.638290,258.973267 
	C123.550713,259.550385 123.178650,260.249481 122.478714,261.004913 
	C122.551826,260.405914 122.952812,259.750580 123.638290,258.973267 
z"/>
<path fill="#EFEDEE" opacity="1.000000" stroke="none" 
	d="
M279.641541,79.882248 
	C279.477936,80.192070 278.996521,80.575813 278.182129,80.938095 
	C278.340698,80.596474 278.832214,80.276321 279.641541,79.882248 
z"/>
<path fill="#E0DEE0" opacity="1.000000" stroke="none" 
	d="
M429.251007,700.854370 
	C429.296692,700.349915 429.614685,699.889465 430.225403,699.513245 
	C430.186523,700.031128 429.854919,700.464783 429.251007,700.854370 
z"/>
<path fill="#E0DEE0" opacity="1.000000" stroke="none" 
	d="
M264.352112,791.095825 
	C264.518311,790.800903 264.997681,790.428467 265.801178,790.044922 
	C265.638611,790.361938 265.151947,790.690063 264.352112,791.095825 
z"/>
<path fill="#E0DEE0" opacity="1.000000" stroke="none" 
	d="
M448.330017,687.082092 
	C448.260559,686.866577 448.455658,686.559265 448.916016,686.159668 
	C448.985718,686.374939 448.790131,686.682617 448.330017,687.082092 
z"/>
<path fill="#FAF5F7" opacity="1.000000" stroke="none" 
	d="
M79.077087,343.238098 
	C79.158905,342.996918 79.563522,342.997772 79.765533,342.996979 
	C79.753616,343.256531 79.539688,343.516876 79.081818,343.870422 
	C78.890335,343.802216 78.942795,343.640747 79.077087,343.238098 
z"/>
<path fill="#F6F1F3" opacity="1.000000" stroke="none" 
	d="
M111.924103,820.284119 
	C112.137741,820.219299 112.452644,820.422424 112.865402,820.895264 
	C112.650627,820.960632 112.337997,820.756348 111.924103,820.284119 
z"/>
<path fill="#EFEDEE" opacity="1.000000" stroke="none" 
	d="
M277.685059,80.930908 
	C277.749664,81.142258 277.545105,81.456131 277.071991,81.875755 
	C277.007599,81.665482 277.211761,81.349464 277.685059,80.930908 
z"/>
<path fill="#E0DEE0" opacity="1.000000" stroke="none" 
	d="
M285.164612,781.888672 
	C285.234589,781.668152 285.536713,781.521484 286.063782,781.511108 
	C286.041870,781.895447 285.744537,782.000488 285.164612,781.888672 
z"/>
<path fill="#E0DEE0" opacity="1.000000" stroke="none" 
	d="
M317.307953,766.859009 
	C317.177246,766.536621 317.380615,766.320862 317.872803,766.100586 
	C317.913147,766.315002 317.739929,766.604858 317.307953,766.859009 
z"/>
<path fill="#FAF5F7" opacity="1.000000" stroke="none" 
	d="
M183.713913,166.938538 
	C183.843811,167.142136 183.705856,167.443375 183.357574,167.880096 
	C183.246841,167.689117 183.346451,167.362640 183.713913,166.938538 
z"/>
<path fill="#FEF5F9" opacity="1.000000" stroke="none" 
	d="
M260.706116,92.944801 
	C260.771606,93.158165 260.572266,93.468033 260.106018,93.871796 
	C260.039795,93.657562 260.240540,93.349442 260.706116,92.944801 
z"/>
<path fill="#FEF5F9" opacity="1.000000" stroke="none" 
	d="
M261.706909,91.947754 
	C261.772705,92.158997 261.572235,92.464737 261.109680,92.871887 
	C261.045258,92.662941 261.242950,92.352592 261.706909,91.947754 
z"/>
<path fill="#FEF5F9" opacity="1.000000" stroke="none" 
	d="
M262.763489,91.093399 
	C262.810486,91.371048 262.575256,91.597923 262.097443,91.893646 
	C262.063629,91.655884 262.272430,91.349258 262.763489,91.093399 
z"/>
<path fill="#E0DEE0" opacity="1.000000" stroke="none" 
	d="
M395.332764,723.075439 
	C395.251495,722.856201 395.442108,722.543762 395.891602,722.121582 
	C395.968506,722.335388 395.786591,722.658752 395.332764,723.075439 
z"/>
<path fill="#EFEDEE" opacity="1.000000" stroke="none" 
	d="
M266.257477,89.920586 
	C266.038910,90.061943 266.009827,89.609184 265.999969,89.382553 
	C266.151886,89.103302 266.313629,89.050690 266.723633,88.936844 
	C266.806580,89.176811 266.641327,89.478020 266.257477,89.920586 
z"/>
<path fill="#FBDEEB" opacity="1.000000" stroke="none" 
	d="
M503.979370,213.986023 
	C511.976715,211.325302 520.163452,209.124741 527.938782,205.924744 
	C562.870667,191.548355 598.707520,180.136322 635.565857,171.855850 
	C647.021729,169.282211 658.340515,166.101608 669.742249,163.280487 
	C672.142761,162.686539 674.629089,162.146286 677.080750,162.124054 
	C680.354431,162.094345 682.793335,162.657669 683.169556,167.269348 
	C684.959229,189.204941 683.938110,211.043900 682.109375,232.905701 
	C681.446167,240.835037 681.830139,248.863983 680.950256,256.759918 
	C679.982727,265.442963 677.999512,274.007935 676.651917,282.654449 
	C672.277954,310.718811 665.015747,338.082367 656.763672,365.207764 
	C656.088745,367.426361 655.004395,369.517273 654.239014,371.712433 
	C653.490967,373.857819 652.907837,376.060730 651.935852,379.289703 
	C653.703247,377.983398 654.587097,377.330109 655.471008,376.676819 
	C655.730835,376.853333 655.990601,377.029877 656.250427,377.206421 
	C653.182861,384.255402 650.115234,391.304413 646.947510,398.583466 
	C646.122925,397.625977 645.673645,397.104279 645.277222,396.643921 
	C638.599182,410.940857 632.469299,425.134216 625.442444,438.868622 
	C613.552917,462.107330 600.045654,484.391205 584.948669,505.740936 
	C568.731018,528.675415 550.969910,550.247620 531.867493,570.847656 
	C510.006104,594.423035 485.991547,615.494446 461.056763,635.681030 
	C431.561676,659.559448 400.026306,680.421509 367.409637,699.638062 
	C334.865112,718.812134 301.348450,736.247864 266.241638,750.286194 
	C239.724243,760.889893 212.902542,770.767273 185.993958,780.343140 
	C172.572632,785.119263 158.633011,788.429016 144.972916,792.551392 
	C141.634216,793.558899 140.104874,792.528320 139.190186,789.318665 
	C133.462677,769.220886 127.108559,749.284790 121.982162,729.036926 
	C115.889412,704.972046 110.322601,680.746765 105.486458,656.400513 
	C102.141357,639.560486 100.129234,622.433105 98.061356,605.368713 
	C96.310684,590.921997 95.334778,576.381287 94.041351,561.421021 
	C94.698578,561.608398 95.655128,562.148132 95.914322,562.921570 
	C100.966248,577.996155 104.938133,593.523315 111.147240,608.099121 
	C121.694069,632.857605 137.374756,654.242554 158.700882,671.004456 
	C165.526016,676.368774 173.628265,674.458679 181.205780,672.516174 
	C182.648743,672.146301 183.420135,669.156616 184.685608,667.072266 
	C184.909317,668.522583 185.124924,669.920410 185.340546,671.318237 
	C185.810486,671.418823 186.280441,671.519470 186.750381,671.620056 
	C187.496490,668.201233 188.142883,664.756897 189.010635,661.369202 
	C190.558594,655.325928 192.204514,649.306885 193.888351,643.299805 
	C194.380051,641.545654 195.351105,639.912720 195.736557,638.144409 
	C197.009415,632.305359 197.872787,626.367676 199.358505,620.587402 
	C200.630325,615.639282 203.144531,610.967834 204.073257,605.981018 
	C210.551804,571.194824 222.237335,538.040344 235.361862,505.349304 
	C242.785324,486.858673 250.020416,468.237701 258.620667,450.288910 
	C268.097351,430.511017 278.856628,411.334808 289.419678,392.095520 
	C295.163910,381.633087 301.071930,371.160065 308.026672,361.498474 
	C312.606262,355.136444 319.472382,350.472656 324.785858,344.572266 
	C330.401611,338.336182 334.802673,330.928467 340.794556,325.127686 
	C349.144684,317.043793 356.573608,307.414917 368.878357,304.486328 
	C372.870331,303.536194 375.798462,304.521027 377.881714,307.861755 
	C379.931824,311.149384 378.355652,313.937286 376.104706,316.364258 
	C366.727325,326.475128 357.404572,336.640106 347.859650,346.591370 
	C329.233398,366.010529 313.654541,387.549500 301.192841,411.432770 
	C289.579773,433.689636 276.452942,455.214294 265.866364,477.934418 
	C252.830276,505.911469 241.729599,534.790588 229.803223,563.284363 
	C226.221466,571.841675 222.422073,580.319214 219.175491,589.002686 
	C214.789307,600.734253 210.766251,612.604004 206.723785,624.460999 
	C202.075562,638.094849 197.569351,651.777161 193.024414,665.446045 
	C192.622787,666.653870 192.390671,667.918030 191.772598,670.379578 
	C197.129883,668.681946 201.636307,667.387329 206.050980,665.832153 
	C226.735733,658.545837 247.551392,651.595337 268.023743,643.750793 
	C292.830109,634.245544 317.601288,624.558044 341.896454,613.836304 
	C362.862854,604.583618 383.506927,594.441528 403.619843,583.458984 
	C423.421539,572.646362 442.600220,560.634521 461.645508,548.509949 
	C484.899933,533.705750 506.427094,516.577454 527.223328,498.454742 
	C547.199524,481.046631 565.346863,462.017883 582.120667,441.537445 
	C598.701721,421.292236 613.323853,399.735199 625.420593,376.619415 
	C639.789246,349.162476 650.706055,320.347260 657.343811,289.903442 
	C661.164307,272.380829 664.194824,254.823593 664.940308,236.938156 
	C665.604736,220.995743 665.744873,205.029175 665.928711,189.071121 
	C665.962097,186.170563 665.091187,183.259598 664.573486,179.941025 
	C601.734253,188.516693 540.963806,203.441498 481.454651,226.214584 
	C481.364838,224.495438 480.902435,223.119095 481.322815,222.110779 
	C482.158569,220.106079 493.328308,215.599670 495.607605,215.669373 
	C497.276001,215.720413 498.967133,215.027725 501.084656,214.340515 
	C501.689423,214.017090 501.857697,214.019684 502.170349,214.245605 
	C502.876221,214.304489 503.437653,214.140060 504.000549,213.986237 
	C504.001953,213.996872 503.979370,213.986023 503.979370,213.986023 
M651.084351,381.520081 
	C651.228455,381.762207 651.372559,382.004333 651.516602,382.246429 
	C651.651855,381.996307 651.947815,381.683655 651.881104,381.512146 
	C651.799988,381.303650 651.413086,381.214111 651.084351,381.520081 
z"/>
<path fill="#FDEBF2" opacity="1.000000" stroke="none" 
	d="
M92.265068,535.718384 
	C90.650658,528.402649 89.036873,520.830566 88.079269,513.176514 
	C85.104660,489.400543 84.074036,465.481415 85.169525,441.576416 
	C85.849594,426.736542 88.012962,411.951996 89.810181,397.179047 
	C92.448273,375.494171 98.561935,354.653168 105.845367,334.138641 
	C117.039879,302.608215 132.864502,273.558533 152.073914,246.172455 
	C169.166977,221.803574 188.994049,199.879501 210.899338,179.981049 
	C226.193634,166.087921 243.099442,153.968857 259.632019,141.009033 
	C259.367493,142.091522 258.958496,143.408646 258.114227,144.324539 
	C249.110794,154.091873 239.593048,163.423279 231.084702,173.600204 
	C216.745102,190.751923 202.602081,208.103943 189.159775,225.961411 
	C169.232498,252.433807 153.032272,281.244141 138.550003,310.993866 
	C121.319412,346.389252 109.338043,383.563019 102.051064,422.228882 
	C97.882828,444.346252 94.530128,466.584198 93.989761,489.149567 
	C93.663666,502.766846 93.340950,516.384216 92.986038,530.000671 
	C92.938850,531.811096 92.710388,533.616699 92.265068,535.718384 
z"/>
<path fill="#EFEDEE" opacity="1.000000" stroke="none" 
	d="
M426.346558,250.989120 
	C432.570648,245.840225 439.071808,240.551056 445.814972,235.590866 
	C450.456207,232.176849 455.432922,229.218857 460.601501,225.991287 
	C461.099152,235.215347 460.008087,237.635971 448.766388,240.150604 
	C443.336212,241.365265 439.961151,244.699997 435.574493,246.911911 
	C432.676758,248.373093 429.679474,249.636932 426.346558,250.989120 
z"/>
<path fill="#EFEDEE" opacity="1.000000" stroke="none" 
	d="
M540.532837,186.919098 
	C541.090515,188.109268 541.282349,189.336029 541.750000,190.812119 
	C531.902649,195.929794 521.774841,200.788315 511.660889,205.675644 
	C509.873474,206.539383 508.144104,207.523346 506.194824,208.723526 
	C506.001770,208.995270 506.018982,208.987564 505.788757,209.095673 
	C505.367157,209.476639 505.175781,209.749481 504.991547,210.010849 
	C504.998688,209.999374 505.024261,209.990723 504.672852,209.986465 
	C503.851898,209.984543 503.382385,209.986893 502.594849,209.994415 
	C501.852844,209.998596 501.428864,209.997620 501.004883,209.996628 
	C501.003967,209.547897 501.003021,209.099167 500.999115,208.313507 
	C510.372681,202.792511 519.725220,197.564377 529.137878,192.446777 
	C532.743591,190.486404 536.486511,188.778580 540.532837,186.919098 
z"/>
<path fill="#F6F1F3" opacity="1.000000" stroke="none" 
	d="
M500.882141,210.282776 
	C501.428864,209.997620 501.852844,209.998596 502.751709,210.226288 
	C503.825806,210.298889 504.425049,210.144806 505.024261,209.990723 
	C505.024261,209.990723 504.998688,209.999374 505.221436,209.901306 
	C505.635773,209.531326 505.827362,209.259445 506.018982,208.987564 
	C506.018982,208.987564 506.001770,208.995270 505.998260,209.004730 
	C510.506622,207.414001 515.018555,205.813980 519.530334,204.213562 
	C527.179077,201.500381 534.861389,198.876770 542.459900,196.029663 
	C545.528381,194.879959 548.345642,193.066299 551.402771,191.877899 
	C554.090271,190.833206 556.953003,190.239410 559.738281,189.446457 
	C559.954468,190.087921 560.170593,190.729370 560.386719,191.370834 
	C544.583557,197.190002 528.757263,202.947952 512.997192,208.881683 
	C509.962097,210.024384 507.186462,211.856201 504.135254,213.678070 
	C503.979370,213.986023 504.001953,213.996872 503.671265,213.985336 
	C502.902344,213.989960 502.464142,214.006119 502.025940,214.022278 
	C501.857697,214.019684 501.689423,214.017090 501.268982,214.018738 
	C500.931030,212.871643 500.845245,211.720291 500.882141,210.282776 
z"/>
<path fill="#FCFAFB" opacity="1.000000" stroke="none" 
	d="
M406.945679,241.404694 
	C408.374695,241.000778 409.746948,241.003372 411.542694,241.431519 
	C410.955994,247.903061 409.945801,253.949097 408.935577,259.995117 
	C408.935577,259.995117 408.461670,260.000519 408.005402,260.107849 
	C407.273621,260.411469 407.089172,260.672150 406.995758,260.997314 
	C406.995758,260.997314 407.000000,261.000000 406.997742,260.997070 
	C406.086029,260.224792 404.325958,259.358887 404.400604,258.701141 
	C405.042023,253.049835 406.014954,247.436127 406.945679,241.404694 
z"/>
<path fill="#F8C8DD" opacity="1.000000" stroke="none" 
	d="
M409.161133,260.249146 
	C409.945801,253.949097 410.955994,247.903061 411.954315,241.440018 
	C412.426331,238.197662 412.910187,235.372330 413.686157,232.311523 
	C413.635834,239.771118 413.504791,247.485641 412.799652,255.147339 
	C412.627136,257.021454 410.574768,258.722565 409.161133,260.249146 
z"/>
<path fill="#EFEDEE" opacity="1.000000" stroke="none" 
	d="
M421.147888,253.177887 
	C421.467224,252.650787 421.951141,252.358475 422.731750,252.064453 
	C422.456482,252.512711 421.884491,252.962692 421.147888,253.177887 
z"/>
<path fill="#FBDFEB" opacity="1.000000" stroke="none" 
	d="
M395.001221,270.001221 
	C394.909760,270.036194 394.817078,270.069946 394.860992,270.050659 
	C394.997559,269.997559 395.000000,270.000000 395.001221,270.001221 
z"/>
<path fill="#FBDFEB" opacity="1.000000" stroke="none" 
	d="
M407.216919,260.894897 
	C407.089172,260.672150 407.273621,260.411469 407.768463,260.110657 
	C407.896179,260.332275 407.712921,260.594391 407.216919,260.894897 
z"/>
<path fill="#EFEDEE" opacity="1.000000" stroke="none" 
	d="
M417.807495,252.099121 
	C417.969879,252.005798 417.999359,252.485123 418.023254,252.723724 
	C417.913177,252.705688 417.779144,252.449066 417.807495,252.099121 
z"/>
<path fill="#FBDEEB" opacity="1.000000" stroke="none" 
	d="
M656.467896,374.449615 
	C656.523376,374.415497 656.412476,374.483734 656.467896,374.449615 
z"/>
<path fill="#F8C1D8" opacity="1.000000" stroke="none" 
	d="
M651.121460,381.296570 
	C651.413086,381.214111 651.799988,381.303650 651.881104,381.512146 
	C651.947815,381.683655 651.651855,381.996307 651.516602,382.246460 
	C651.372559,382.004333 651.228455,381.762207 651.121460,381.296570 
z"/>
<path fill="#F8C1D8" opacity="1.000000" stroke="none" 
	d="
M502.170349,214.245605 
	C502.464142,214.006119 502.902344,213.989960 503.669830,213.974701 
	C503.437653,214.140060 502.876221,214.304489 502.170349,214.245605 
z"/>
<path fill="#F8C1D8" opacity="1.000000" stroke="none" 
	d="
M504.672852,209.986465 
	C504.425049,210.144806 503.825806,210.298889 503.069702,210.221115 
	C503.382385,209.986893 503.851898,209.984543 504.672852,209.986465 
z"/>
<path fill="#F8C1D8" opacity="1.000000" stroke="none" 
	d="
M505.788757,209.095673 
	C505.827362,209.259445 505.635773,209.531326 505.214294,209.912781 
	C505.175781,209.749481 505.367157,209.476639 505.788757,209.095673 
z"/>
</svg>